  0
SECTION
  2
HEADER
  9
$ACADVER
  1
AC1015
  9
$ACADMAINTVER
 70
     6
  9
$DWGCODEPAGE
  3
ANSI_1252
  9
$INSBASE
 10
0.0
 20
0.0
 30
0.0
  9
$EXTMIN
 10
-118.7762026282
 20
-24.2420029991
 30
0.0
  9
$EXTMAX
 10
60.9562757915
 20
124.649117269
 30
0.0
  9
$LIMMIN
 10
0.0
 20
0.0
  9
$LIMMAX
 10
420.0
 20
297.0
  9
$ORTHOMODE
 70
     0
  9
$REGENMODE
 70
     1
  9
$FILLMODE
 70
     1
  9
$QTEXTMODE
 70
     0
  9
$MIRRTEXT
 70
     1
  9
$LTSCALE
 40
1.0
  9
$ATTMODE
 70
     1
  9
$TEXTSIZE
 40
3.175
  9
$TRACEWID
 40
1.0
  9
$TEXTSTYLE
  7
Standard
  9
$CLAYER
  8
0
  9
$CELTYPE
  6
ByLayer
  9
$CECOLOR
 62
   256
  9
$CELTSCALE
 40
1.0
  9
$DISPSILH
 70
     0
  9
$DIMSCALE
 40
1.0
  9
$DIMASZ
 40
3.302
  9
$DIMEXO
 40
0.0
  9
$DIMDLI
 40
3.75
  9
$DIMRND
 40
0.0
  9
$DIMDLE
 40
0.0
  9
$DIMEXE
 40
3.175
  9
$DIMTP
 40
0.0
  9
$DIMTM
 40
0.0
  9
$DIMTXT
 40
3.175
  9
$DIMCEN
 40
2.5
  9
$DIMTSZ
 40
0.0
  9
$DIMTOL
 70
     0
  9
$DIMLIM
 70
     0
  9
$DIMTIH
 70
     1
  9
$DIMTOH
 70
     1
  9
$DIMSE1
 70
     0
  9
$DIMSE2
 70
     0
  9
$DIMTAD
 70
     0
  9
$DIMZIN
 70
     1
  9
$DIMBLK
  1

  9
$DIMASO
 70
     1
  9
$DIMSHO
 70
     1
  9
$DIMPOST
  1

  9
$DIMAPOST
  1

  9
$DIMALT
 70
     0
  9
$DIMALTD
 70
     3
  9
$DIMALTF
 40
0.0393700787
  9
$DIMLFAC
 40
1.0
  9
$DIMTOFL
 70
     1
  9
$DIMTVP
 40
0.0
  9
$DIMTIX
 70
     0
  9
$DIMSOXD
 70
     0
  9
$DIMSAH
 70
     0
  9
$DIMBLK1
  1

  9
$DIMBLK2
  1

  9
$DIMSTYLE
  2
ISO-25
  9
$DIMCLRD
 70
     0
  9
$DIMCLRE
 70
     0
  9
$DIMCLRT
 70
     0
  9
$DIMTFAC
 40
1.0
  9
$DIMGAP
 40
1.524
  9
$DIMJUST
 70
     0
  9
$DIMSD1
 70
     0
  9
$DIMSD2
 70
     0
  9
$DIMTOLJ
 70
     0
  9
$DIMTZIN
 70
     1
  9
$DIMALTZ
 70
     0
  9
$DIMALTTZ
 70
     0
  9
$DIMUPT
 70
     0
  9
$DIMDEC
 70
     2
  9
$DIMTDEC
 70
     2
  9
$DIMALTU
 70
     2
  9
$DIMALTTD
 70
     3
  9
$DIMTXSTY
  7
Standard
  9
$DIMAUNIT
 70
     0
  9
$DIMADEC
 70
     2
  9
$DIMALTRND
 40
0.0
  9
$DIMAZIN
 70
     0
  9
$DIMDSEP
 70
    44
  9
$DIMATFIT
 70
     3
  9
$DIMFRAC
 70
     0
  9
$DIMLDRBLK
  1

  9
$DIMLUNIT
 70
     2
  9
$DIMLWD
 70
    -2
  9
$DIMLWE
 70
    -2
  9
$DIMTMOVE
 70
     0
  9
$LUNITS
 70
     2
  9
$LUPREC
 70
     2
  9
$SKETCHINC
 40
1.0
  9
$FILLETRAD
 40
0.0
  9
$AUNITS
 70
     0
  9
$AUPREC
 70
     2
  9
$MENU
  1
.
  9
$ELEVATION
 40
0.0
  9
$PELEVATION
 40
0.0
  9
$THICKNESS
 40
0.0
  9
$LIMCHECK
 70
     0
  9
$CHAMFERA
 40
0.0
  9
$CHAMFERB
 40
0.0
  9
$CHAMFERC
 40
0.0
  9
$CHAMFERD
 40
0.0
  9
$SKPOLY
 70
     0
  9
$TDCREATE
 40
2460900.413980104
  9
$TDUCREATE
 40
2460900.330646771
  9
$TDUPDATE
 40
2460900.414066667
  9
$TDUUPDATE
 40
2460900.330733333
  9
$TDINDWG
 40
0.0000000116
  9
$TDUSRTIMER
 40
0.0000000116
  9
$USRTIMER
 70
     1
  9
$ANGBASE
 50
0.0
  9
$ANGDIR
 70
     0
  9
$PDMODE
 70
     0
  9
$PDSIZE
 40
-1.0
  9
$PLINEWID
 40
0.0
  9
$SPLFRAME
 70
     0
  9
$SPLINETYPE
 70
     6
  9
$SPLINESEGS
 70
     8
  9
$HANDSEED
  5
2DA
  9
$SURFTAB1
 70
     6
  9
$SURFTAB2
 70
     6
  9
$SURFTYPE
 70
     6
  9
$SURFU
 70
     6
  9
$SURFV
 70
     6
  9
$UCSBASE
  2

  9
$UCSNAME
  2

  9
$UCSORG
 10
0.0
 20
0.0
 30
0.0
  9
$UCSXDIR
 10
1.0
 20
0.0
 30
0.0
  9
$UCSYDIR
 10
0.0
 20
1.0
 30
0.0
  9
$UCSORTHOREF
  2

  9
$UCSORTHOVIEW
 70
     0
  9
$UCSORGTOP
 10
0.0
 20
0.0
 30
0.0
  9
$UCSORGBOTTOM
 10
0.0
 20
0.0
 30
0.0
  9
$UCSORGLEFT
 10
0.0
 20
0.0
 30
0.0
  9
$UCSORGRIGHT
 10
0.0
 20
0.0
 30
0.0
  9
$UCSORGFRONT
 10
0.0
 20
0.0
 30
0.0
  9
$UCSORGBACK
 10
0.0
 20
0.0
 30
0.0
  9
$PUCSBASE
  2

  9
$PUCSNAME
  2

  9
$PUCSORG
 10
0.0
 20
0.0
 30
0.0
  9
$PUCSXDIR
 10
1.0
 20
0.0
 30
0.0
  9
$PUCSYDIR
 10
0.0
 20
1.0
 30
0.0
  9
$PUCSORTHOREF
  2

  9
$PUCSORTHOVIEW
 70
     0
  9
$PUCSORGTOP
 10
0.0
 20
0.0
 30
0.0
  9
$PUCSORGBOTTOM
 10
0.0
 20
0.0
 30
0.0
  9
$PUCSORGLEFT
 10
0.0
 20
0.0
 30
0.0
  9
$PUCSORGRIGHT
 10
0.0
 20
0.0
 30
0.0
  9
$PUCSORGFRONT
 10
0.0
 20
0.0
 30
0.0
  9
$PUCSORGBACK
 10
0.0
 20
0.0
 30
0.0
  9
$USERI1
 70
     0
  9
$USERI2
 70
     0
  9
$USERI3
 70
     0
  9
$USERI4
 70
     0
  9
$USERI5
 70
     0
  9
$USERR1
 40
0.0
  9
$USERR2
 40
0.0
  9
$USERR3
 40
0.0
  9
$USERR4
 40
0.0
  9
$USERR5
 40
0.0
  9
$WORLDVIEW
 70
     1
  9
$SHADEDGE
 70
     3
  9
$SHADEDIF
 70
    70
  9
$TILEMODE
 70
     1
  9
$MAXACTVP
 70
    64
  9
$PINSBASE
 10
0.0
 20
0.0
 30
0.0
  9
$PLIMCHECK
 70
     0
  9
$PEXTMIN
 10
1.0000000000E+20
 20
1.0000000000E+20
 30
1.0000000000E+20
  9
$PEXTMAX
 10
-1.0000000000E+20
 20
-1.0000000000E+20
 30
-1.0000000000E+20
  9
$PLIMMIN
 10
0.0
 20
0.0
  9
$PLIMMAX
 10
420.0
 20
297.0
  9
$UNITMODE
 70
     0
  9
$VISRETAIN
 70
     1
  9
$PLINEGEN
 70
     0
  9
$PSLTSCALE
 70
     1
  9
$TREEDEPTH
 70
  3020
  9
$CMLSTYLE
  2
Standard
  9
$CMLJUST
 70
     0
  9
$CMLSCALE
 40
20.0
  9
$PROXYGRAPHICS
 70
     1
  9
$MEASUREMENT
 70
     1
  9
$CELWEIGHT
370
    -1
  9
$ENDCAPS
280
     0
  9
$JOINSTYLE
280
     0
  9
$LWDISPLAY
290
     1
  9
$INSUNITS
 70
     4
  9
$HYPERLINKBASE
  1

  9
$STYLESHEET
  1

  9
$XEDIT
290
     1
  9
$CEPSNTYPE
380
     0
  9
$PSTYLEMODE
290
     1
  9
$FINGERPRINTGUID
  2
{e9c57f66-d948-4c47-8072-79a4c1cbedbe}
  9
$VERSIONGUID
  2
{FAEB1C32-E019-11D5-929B-00C0DF256EC4}
  9
$EXTNAMES
290
     1
  9
$PSVPSCALE
 40
0.0
  9
$OLESTARTUP
290
     0
  0
ENDSEC
  0
SECTION
  2
CLASSES
  0
CLASS
  1
ACDBDICTIONARYWDFLT
  2
AcDbDictionaryWithDefault
  3
ObjectDBX Classes
 90
        0
280
     0
281
     0
  0
CLASS
  1
VISUALSTYLE
  2
AcDbVisualStyle
  3
ObjectDBX Classes
 90
     4095
280
     0
281
     0
  0
CLASS
  1
MATERIAL
  2
AcDbMaterial
  3
ObjectDBX Classes
 90
     1153
280
     0
281
     0
  0
CLASS
  1
SCALE
  2
AcDbScale
  3
ObjectDBX Classes
 90
     1153
280
     0
281
     0
  0
CLASS
  1
TABLESTYLE
  2
AcDbTableStyle
  3
ObjectDBX Classes
 90
     4095
280
     0
281
     0
  0
CLASS
  1
MLEADERSTYLE
  2
AcDbMLeaderStyle
  3
ACDB_MLEADERSTYLE_CLASS
 90
     4095
280
     0
281
     0
  0
CLASS
  1
SUN
  2
AcDbSun
  3
SCENEOE
 90
     1153
280
     0
281
     0
  0
CLASS
  1
ACDBPLACEHOLDER
  2
AcDbPlaceHolder
  3
ObjectDBX Classes
 90
        0
280
     0
281
     0
  0
CLASS
  1
LAYOUT
  2
AcDbLayout
  3
ObjectDBX Classes
 90
        0
280
     0
281
     0
  0
ENDSEC
  0
SECTION
  2
TABLES
  0
TABLE
  2
VPORT
  5
8
330
0
100
AcDbSymbolTable
 70
     1
  0
VPORT
  5
29
330
8
100
AcDbSymbolTableRecord
100
AcDbViewportTableRecord
  2
*Active
 70
     0
 10
0.0
 20
0.0
 11
1.0
 21
1.0
 12
-28.9099634183
 22
50.203557135
 13
0.0
 23
0.0
 14
10.0
 24
10.0
 15
10.0
 25
10.0
 16
0.0
 26
0.0
 36
1.0
 17
0.0
 27
0.0
 37
0.0
 40
151.8689426734
 41
1.2071403459
 42
50.0
 43
0.0
 44
0.0
 50
0.0
 51
0.0
 71
     0
 72
   100
 73
     1
 74
     3
 75
     0
 76
     0
 77
     0
 78
     0
281
     0
 65
     1
110
0.0
120
0.0
130
0.0
111
1.0
121
0.0
131
0.0
112
0.0
122
1.0
132
0.0
 79
     0
146
0.0
  0
ENDTAB
  0
TABLE
  2
LTYPE
  5
5
330
0
100
AcDbSymbolTable
 70
     6
  0
LTYPE
  5
14
330
5
100
AcDbSymbolTableRecord
100
AcDbLinetypeTableRecord
  2
ByBlock
 70
     0
  3

 72
    65
 73
     0
 40
0.0
  0
LTYPE
  5
15
330
5
100
AcDbSymbolTableRecord
100
AcDbLinetypeTableRecord
  2
ByLayer
 70
     0
  3

 72
    65
 73
     0
 40
0.0
  0
LTYPE
  5
16
330
5
100
AcDbSymbolTableRecord
100
AcDbLinetypeTableRecord
  2
Continuous
 70
     0
  3
Solid line
 72
    65
 73
     0
 40
0.0
  0
LTYPE
  5
5E
330
5
100
AcDbSymbolTableRecord
100
AcDbLinetypeTableRecord
  2
HIDDEN
 70
     0
  3
Hidden __ __ __ __ __ __ __ __ __ __ __ __ __ __
 72
    65
 73
     2
 40
1.905
 49
1.27
 74
     0
 49
-0.635
 74
     0
  0
LTYPE
  5
5F
330
5
100
AcDbSymbolTableRecord
100
AcDbLinetypeTableRecord
  2
PHANTOM
 70
     0
  3
Phantom ______  __  __  ______  __  __  ______
 72
    65
 73
     6
 40
12.7
 49
6.35
 74
     0
 49
-1.27
 74
     0
 49
1.27
 74
     0
 49
-1.27
 74
     0
 49
1.27
 74
     0
 49
-1.27
 74
     0
  0
LTYPE
  5
60
330
5
100
AcDbSymbolTableRecord
100
AcDbLinetypeTableRecord
  2
CENTER
 70
     0
  3
Center ____ _ ____ _ ____ _ ____ _ ____ _ ____
 72
    65
 73
     4
 40
10.16
 49
6.35
 74
     0
 49
-1.27
 74
     0
 49
1.27
 74
     0
 49
-1.27
 74
     0
  0
LTYPE
  5
61
330
5
100
AcDbSymbolTableRecord
100
AcDbLinetypeTableRecord
  2
CENTERX2
 70
     0
  3
Center (2x) ________  __  ________  __  _____
 72
    65
 73
     4
 40
20.32
 49
12.7
 74
     0
 49
-2.54
 74
     0
 49
2.54
 74
     0
 49
-2.54
 74
     0
  0
LTYPE
  5
62
330
5
100
AcDbSymbolTableRecord
100
AcDbLinetypeTableRecord
  2
DOT2
 70
     0
  3
Dot (.5x) ........................................
 72
    65
 73
     2
 40
0.635
 49
0.0
 74
     0
 49
-0.635
 74
     0
  0
ENDTAB
  0
TABLE
  2
LAYER
  5
2
330
0
100
AcDbSymbolTable
 70
     1
  0
LAYER
  5
10
330
2
100
AcDbSymbolTableRecord
100
AcDbLayerTableRecord
  2
0
 70
     0
 62
     7
  6
Continuous
370
    -3
390
F
  0
ENDTAB
  0
TABLE
  2
STYLE
  5
3
330
0
100
AcDbSymbolTable
 70
     2
  0
STYLE
  5
11
330
3
100
AcDbSymbolTableRecord
100
AcDbTextStyleTableRecord
  2
Standard
 70
     0
 40
0.0
 41
1.0
 50
0.0
 71
     0
 42
3.175
  3
txt
  4

  0
STYLE
  5
2D6
330
3
100
AcDbSymbolTableRecord
100
AcDbTextStyleTableRecord
  2
SLDTEXTSTYLE0
 70
     0
 40
0.0
 41
0.7
 50
0.0
 71
     0
 42
3.175
  3
TXT
  4

  0
ENDTAB
  0
TABLE
  2
VIEW
  5
6
330
0
100
AcDbSymbolTable
 70
     0
  0
ENDTAB
  0
TABLE
  2
UCS
  5
7
330
0
100
AcDbSymbolTable
 70
     0
  0
ENDTAB
  0
TABLE
  2
APPID
  5
9
330
0
100
AcDbSymbolTable
 70
     1
  0
APPID
  5
12
330
9
100
AcDbSymbolTableRecord
100
AcDbRegAppTableRecord
  2
ACAD
 70
     0
  0
ENDTAB
  0
TABLE
  2
DIMSTYLE
  5
A
330
0
100
AcDbSymbolTable
 70
     1
100
AcDbDimStyleTable
  0
DIMSTYLE
105
27
330
A
100
AcDbSymbolTableRecord
100
AcDbDimStyleTableRecord
  2
ISO-25
 70
     0
 41
2.5
 42
0.625
 43
3.75
 44
1.25
 73
     0
 74
     0
 77
     1
 78
     8
140
2.5
141
2.5
143
0.0393700787
147
0.625
171
     3
172
     1
178
     0
271
     2
272
     2
274
     3
278
    44
283
     0
284
     8
340
11
  0
ENDTAB
  0
TABLE
  2
BLOCK_RECORD
  5
1
330
0
100
AcDbSymbolTable
 70
     1
  0
BLOCK_RECORD
  5
1F
330
1
100
AcDbSymbolTableRecord
100
AcDbBlockTableRecord
  2
*Model_Space
340
22
  0
BLOCK_RECORD
  5
1B
330
1
100
AcDbSymbolTableRecord
100
AcDbBlockTableRecord
  2
*Paper_Space
340
1E
  0
BLOCK_RECORD
  5
23
330
1
100
AcDbSymbolTableRecord
100
AcDbBlockTableRecord
  2
*Paper_Space0
340
26
  0
ENDTAB
  0
ENDSEC
  0
SECTION
  2
BLOCKS
  0
BLOCK
  5
20
330
1F
100
AcDbEntity
  8
0
100
AcDbBlockBegin
  2
*Model_Space
 70
     0
 10
0.0
 20
0.0
 30
0.0
  3
*Model_Space
  1

  0
ENDBLK
  5
21
330
1F
100
AcDbEntity
  8
0
100
AcDbBlockEnd
  0
BLOCK
  5
1C
330
1B
100
AcDbEntity
 67
     1
  8
0
100
AcDbBlockBegin
  2
*Paper_Space
 70
     0
 10
0.0
 20
0.0
 30
0.0
  3
*Paper_Space
  1

  0
ENDBLK
  5
1D
330
1B
100
AcDbEntity
 67
     1
  8
0
100
AcDbBlockEnd
  0
BLOCK
  5
24
330
23
100
AcDbEntity
  8
0
100
AcDbBlockBegin
  2
*Paper_Space0
 70
     0
 10
0.0
 20
0.0
 30
0.0
  3
*Paper_Space0
  1

  0
ENDBLK
  5
25
330
23
100
AcDbEntity
  8
0
100
AcDbBlockEnd
  0
ENDSEC
  0
SECTION
  2
ENTITIES
  0
CIRCLE
  5
188
330
1F
100
AcDbEntity
  8
0
  6
Continuous
 62
     7
370
    25
100
AcDbCircle
 10
3.2398493718
 20
-0.000882731
 30
0.0
 40
1.250000000000002
  0
CIRCLE
  5
189
330
1F
100
AcDbEntity
  8
0
  6
Continuous
 62
     7
370
    25
100
AcDbCircle
 10
38.2237973718
 20
-13.000882731
 30
0.0
 40
1.25
  0
CIRCLE
  5
18A
330
1F
100
AcDbEntity
  8
0
  6
Continuous
 62
     7
370
    25
100
AcDbCircle
 10
50.9898493718
 20
7.999117269
 30
0.0
 40
1.249999999999999
  0
CIRCLE
  5
18B
330
1F
100
AcDbEntity
  8
0
  6
Continuous
 62
     7
370
    25
100
AcDbCircle
 10
14.2237973718
 20
28.249117269
 30
0.0
 40
1.249999999999996
  0
CIRCLE
  5
18C
330
1F
100
AcDbEntity
  8
0
  6
Continuous
 62
     7
370
    25
100
AcDbCircle
 10
-92.9762026282
 20
41.283065269
 30
0.0
 40
1.249999999999993
  0
CIRCLE
  5
18D
330
1F
100
AcDbEntity
  8
0
  6
Continuous
 62
     7
370
    25
100
AcDbCircle
 10
14.2237973718
 20
118.249117269
 30
0.0
 40
1.25
  0
CIRCLE
  5
18E
330
1F
100
AcDbEntity
  8
0
  6
Continuous
 62
     7
370
    25
100
AcDbCircle
 10
-111.2762026282
 20
111.515169269
 30
0.0
 40
1.249999999999986
  0
LINE
  5
1A0
330
1F
100
AcDbEntity
  8
0
  6
Continuous
 62
     7
370
    25
100
AcDbLine
 10
-12.7732114098
 20
86.899117269
 30
0.0
 11
-0.8030870929
 21
86.899117269
 31
0.0
  0
LINE
  5
1A1
330
1F
100
AcDbEntity
  8
0
  6
Continuous
 62
     7
370
    25
100
AcDbLine
 10
-13.7882026282
 20
85.8841260506
 30
0.0
 11
-13.7882026282
 21
73.9140017338
 31
0.0
  0
LINE
  5
1A2
330
1F
100
AcDbEntity
  8
0
  6
Continuous
 62
     7
370
    25
100
AcDbLine
 10
-12.7732114098
 20
72.8990105154
 30
0.0
 11
-0.8030870929
 21
72.8990105154
 31
0.0
  0
LINE
  5
1A3
330
1F
100
AcDbEntity
  8
0
  6
Continuous
 62
     7
370
    25
100
AcDbLine
 10
0.2119041254
 20
85.8841260506
 30
0.0
 11
0.2119041254
 21
73.9140017338
 31
0.0
  0
LINE
  5
1A4
330
1F
100
AcDbEntity
  8
0
  6
Continuous
 62
     7
370
    25
100
AcDbLine
 10
-32.8382026282
 20
50.7841260506
 30
0.0
 11
-32.8382026282
 21
38.8140017338
 31
0.0
  0
LINE
  5
1A5
330
1F
100
AcDbEntity
  8
0
  6
Continuous
 62
     7
370
    25
100
AcDbLine
 10
-31.8232114098
 20
37.7990105154
 30
0.0
 11
-19.8530870929
 21
37.7990105154
 31
0.0
  0
LINE
  5
1A6
330
1F
100
AcDbEntity
  8
0
  6
Continuous
 62
     7
370
    25
100
AcDbLine
 10
-18.8380958746
 20
50.7841260506
 30
0.0
 11
-18.8380958746
 21
38.8140017338
 31
0.0
  0
LINE
  5
1A7
330
1F
100
AcDbEntity
  8
0
  6
Continuous
 62
     7
370
    25
100
AcDbLine
 10
-31.8232114098
 20
51.799117269
 30
0.0
 11
-19.8530870929
 21
51.799117269
 31
0.0
  0
LINE
  5
1A8
330
1F
100
AcDbEntity
  8
0
  6
Continuous
 62
     7
370
    25
100
AcDbLine
 10
-18.8380958746
 20
31.7341260506
 30
0.0
 11
-18.8380958746
 21
19.7640017338
 31
0.0
  0
LINE
  5
1A9
330
1F
100
AcDbEntity
  8
0
  6
Continuous
 62
     7
370
    25
100
AcDbLine
 10
-31.8232114098
 20
32.749117269
 30
0.0
 11
-19.8530870929
 21
32.749117269
 31
0.0
  0
LINE
  5
1AA
330
1F
100
AcDbEntity
  8
0
  6
Continuous
 62
     7
370
    25
100
AcDbLine
 10
-32.8382026282
 20
31.7341260506
 30
0.0
 11
-32.8382026282
 21
19.7640017338
 31
0.0
  0
LINE
  5
1AB
330
1F
100
AcDbEntity
  8
0
  6
Continuous
 62
     7
370
    25
100
AcDbLine
 10
-31.8232114098
 20
18.7490105154
 30
0.0
 11
-19.8530870929
 21
18.7490105154
 31
0.0
  0
LINE
  5
1AC
330
1F
100
AcDbEntity
  8
0
  6
Continuous
 62
     7
370
    25
100
AcDbLine
 10
-31.8232114098
 20
56.8490105154
 30
0.0
 11
-19.8530870929
 21
56.8490105154
 31
0.0
  0
LINE
  5
1AD
330
1F
100
AcDbEntity
  8
0
  6
Continuous
 62
     7
370
    25
100
AcDbLine
 10
-18.8380958746
 20
69.8341260506
 30
0.0
 11
-18.8380958746
 21
57.8640017338
 31
0.0
  0
LINE
  5
1AE
330
1F
100
AcDbEntity
  8
0
  6
Continuous
 62
     7
370
    25
100
AcDbLine
 10
-31.8232114098
 20
70.849117269
 30
0.0
 11
-19.8530870929
 21
70.849117269
 31
0.0
  0
LINE
  5
1AF
330
1F
100
AcDbEntity
  8
0
  6
Continuous
 62
     7
370
    25
100
AcDbLine
 10
-32.8382026282
 20
69.8341260506
 30
0.0
 11
-32.8382026282
 21
57.8640017338
 31
0.0
  0
LINE
  5
1B0
330
1F
100
AcDbEntity
  8
0
  6
Continuous
 62
     7
370
    25
100
AcDbLine
 10
-31.8232114098
 20
89.899117269
 30
0.0
 11
-19.8530870929
 21
89.899117269
 31
0.0
  0
LINE
  5
1B1
330
1F
100
AcDbEntity
  8
0
  6
Continuous
 62
     7
370
    25
100
AcDbLine
 10
-32.8382026282
 20
88.8841260506
 30
0.0
 11
-32.8382026282
 21
76.9140017338
 31
0.0
  0
LINE
  5
1B2
330
1F
100
AcDbEntity
  8
0
  6
Continuous
 62
     7
370
    25
100
AcDbLine
 10
-31.8232114098
 20
75.8990105154
 30
0.0
 11
-19.8530870929
 21
75.8990105154
 31
0.0
  0
LINE
  5
1B3
330
1F
100
AcDbEntity
  8
0
  6
Continuous
 62
     7
370
    25
100
AcDbLine
 10
-18.8380958746
 20
88.8841260506
 30
0.0
 11
-18.8380958746
 21
76.9140017338
 31
0.0
  0
LINE
  5
1B4
330
1F
100
AcDbEntity
  8
0
  6
Continuous
 62
     7
370
    25
100
AcDbLine
 10
-109.0382560049
 20
47.2591260506
 30
0.0
 11
-109.0382560049
 21
35.2890017338
 31
0.0
  0
LINE
  5
1B5
330
1F
100
AcDbEntity
  8
0
  6
Continuous
 62
     7
370
    25
100
AcDbLine
 10
-108.0232647866
 20
34.2740105154
 30
0.0
 11
-96.0531404697
 21
34.2740105154
 31
0.0
  0
LINE
  5
1B6
330
1F
100
AcDbEntity
  8
0
  6
Continuous
 62
     7
370
    25
100
AcDbLine
 10
-95.0381492514
 20
47.2591260506
 30
0.0
 11
-95.0381492514
 21
35.2890017338
 31
0.0
  0
LINE
  5
1B7
330
1F
100
AcDbEntity
  8
0
  6
Continuous
 62
     7
370
    25
100
AcDbLine
 10
-108.0232647866
 20
48.274117269
 30
0.0
 11
-96.0531404697
 21
48.274117269
 31
0.0
  0
LINE
  5
1B8
330
1F
100
AcDbEntity
  8
0
  6
Continuous
 62
     7
370
    25
100
AcDbLine
 10
-108.0232647866
 20
29.224117269
 30
0.0
 11
-96.0531404697
 21
29.224117269
 31
0.0
  0
LINE
  5
1B9
330
1F
100
AcDbEntity
  8
0
  6
Continuous
 62
     7
370
    25
100
AcDbLine
 10
-109.0382560049
 20
28.2091260506
 30
0.0
 11
-109.0382560049
 21
16.2390017338
 31
0.0
  0
LINE
  5
1BA
330
1F
100
AcDbEntity
  8
0
  6
Continuous
 62
     7
370
    25
100
AcDbLine
 10
-108.0232647866
 20
15.2240105154
 30
0.0
 11
-96.0531404697
 21
15.2240105154
 31
0.0
  0
LINE
  5
1BB
330
1F
100
AcDbEntity
  8
0
  6
Continuous
 62
     7
370
    25
100
AcDbLine
 10
-95.0381492514
 20
28.2091260506
 30
0.0
 11
-95.0381492514
 21
16.2390017338
 31
0.0
  0
LINE
  5
1BC
330
1F
100
AcDbEntity
  8
0
  6
Continuous
 62
     7
370
    25
100
AcDbLine
 10
-108.0232647866
 20
53.3240105154
 30
0.0
 11
-96.0531404697
 21
53.3240105154
 31
0.0
  0
LINE
  5
1BD
330
1F
100
AcDbEntity
  8
0
  6
Continuous
 62
     7
370
    25
100
AcDbLine
 10
-95.0381492514
 20
66.3091260506
 30
0.0
 11
-95.0381492514
 21
54.3390017338
 31
0.0
  0
LINE
  5
1BE
330
1F
100
AcDbEntity
  8
0
  6
Continuous
 62
     7
370
    25
100
AcDbLine
 10
-108.0232647866
 20
67.324117269
 30
0.0
 11
-96.0531404697
 21
67.324117269
 31
0.0
  0
LINE
  5
1BF
330
1F
100
AcDbEntity
  8
0
  6
Continuous
 62
     7
370
    25
100
AcDbLine
 10
-109.0382560049
 20
66.3091260506
 30
0.0
 11
-109.0382560049
 21
54.3390017338
 31
0.0
  0
LINE
  5
1C0
330
1F
100
AcDbEntity
  8
0
  6
Continuous
 62
     7
370
    25
100
AcDbLine
 10
-95.0381492514
 20
85.3591260506
 30
0.0
 11
-95.0381492514
 21
73.3890017338
 31
0.0
  0
LINE
  5
1C1
330
1F
100
AcDbEntity
  8
0
  6
Continuous
 62
     7
370
    25
100
AcDbLine
 10
-108.0232647866
 20
86.374117269
 30
0.0
 11
-96.0531404697
 21
86.374117269
 31
0.0
  0
LINE
  5
1C2
330
1F
100
AcDbEntity
  8
0
  6
Continuous
 62
     7
370
    25
100
AcDbLine
 10
-109.0382560049
 20
85.3591260506
 30
0.0
 11
-109.0382560049
 21
73.3890017338
 31
0.0
  0
LINE
  5
1C3
330
1F
100
AcDbEntity
  8
0
  6
Continuous
 62
     7
370
    25
100
AcDbLine
 10
-108.0232647866
 20
72.3740105154
 30
0.0
 11
-96.0531404697
 21
72.3740105154
 31
0.0
  0
LINE
  5
1C4
330
1F
100
AcDbEntity
  8
0
  6
Continuous
 62
     7
370
    25
100
AcDbLine
 10
-89.9882560049
 20
47.2591260506
 30
0.0
 11
-89.9882560049
 21
35.2890017338
 31
0.0
  0
LINE
  5
1C5
330
1F
100
AcDbEntity
  8
0
  6
Continuous
 62
     7
370
    25
100
AcDbLine
 10
-88.9732647866
 20
34.2740105154
 30
0.0
 11
-77.0031404697
 21
34.2740105154
 31
0.0
  0
LINE
  5
1C6
330
1F
100
AcDbEntity
  8
0
  6
Continuous
 62
     7
370
    25
100
AcDbLine
 10
-75.9881492514
 20
47.2591260506
 30
0.0
 11
-75.9881492514
 21
35.2890017338
 31
0.0
  0
LINE
  5
1C7
330
1F
100
AcDbEntity
  8
0
  6
Continuous
 62
     7
370
    25
100
AcDbLine
 10
-88.9732647866
 20
29.224117269
 30
0.0
 11
-77.0031404697
 21
29.224117269
 31
0.0
  0
LINE
  5
1C8
330
1F
100
AcDbEntity
  8
0
  6
Continuous
 62
     7
370
    25
100
AcDbLine
 10
-89.9882560049
 20
28.2091260506
 30
0.0
 11
-89.9882560049
 21
16.2390017338
 31
0.0
  0
LINE
  5
1C9
330
1F
100
AcDbEntity
  8
0
  6
Continuous
 62
     7
370
    25
100
AcDbLine
 10
-88.9732647866
 20
15.2240105154
 30
0.0
 11
-77.0031404697
 21
15.2240105154
 31
0.0
  0
LINE
  5
1CA
330
1F
100
AcDbEntity
  8
0
  6
Continuous
 62
     7
370
    25
100
AcDbLine
 10
-75.9881492514
 20
28.2091260506
 30
0.0
 11
-75.9881492514
 21
16.2390017338
 31
0.0
  0
LINE
  5
1CB
330
1F
100
AcDbEntity
  8
0
  6
Continuous
 62
     7
370
    25
100
AcDbLine
 10
-88.9732647866
 20
53.3240105154
 30
0.0
 11
-77.0031404697
 21
53.3240105154
 31
0.0
  0
LINE
  5
1CC
330
1F
100
AcDbEntity
  8
0
  6
Continuous
 62
     7
370
    25
100
AcDbLine
 10
-75.9881492514
 20
66.3091260506
 30
0.0
 11
-75.9881492514
 21
54.3390017338
 31
0.0
  0
LINE
  5
1CD
330
1F
100
AcDbEntity
  8
0
  6
Continuous
 62
     7
370
    25
100
AcDbLine
 10
-88.9732647866
 20
67.324117269
 30
0.0
 11
-77.0031404697
 21
67.324117269
 31
0.0
  0
LINE
  5
1CE
330
1F
100
AcDbEntity
  8
0
  6
Continuous
 62
     7
370
    25
100
AcDbLine
 10
-89.9882560049
 20
66.3091260506
 30
0.0
 11
-89.9882560049
 21
54.3390017338
 31
0.0
  0
LINE
  5
1CF
330
1F
100
AcDbEntity
  8
0
  6
Continuous
 62
     7
370
    25
100
AcDbLine
 10
-75.9881492514
 20
85.3591260506
 30
0.0
 11
-75.9881492514
 21
73.3890017338
 31
0.0
  0
LINE
  5
1D0
330
1F
100
AcDbEntity
  8
0
  6
Continuous
 62
     7
370
    25
100
AcDbLine
 10
-88.9732647866
 20
86.374117269
 30
0.0
 11
-77.0031404697
 21
86.374117269
 31
0.0
  0
LINE
  5
1D1
330
1F
100
AcDbEntity
  8
0
  6
Continuous
 62
     7
370
    25
100
AcDbLine
 10
-89.9882560049
 20
85.3591260506
 30
0.0
 11
-89.9882560049
 21
73.3890017338
 31
0.0
  0
LINE
  5
1D2
330
1F
100
AcDbEntity
  8
0
  6
Continuous
 62
     7
370
    25
100
AcDbLine
 10
-88.9732647866
 20
72.3740105154
 30
0.0
 11
-77.0031404697
 21
72.3740105154
 31
0.0
  0
LINE
  5
1D3
330
1F
100
AcDbEntity
  8
0
  6
Continuous
 62
     7
370
    25
100
AcDbLine
 10
-70.9382560049
 20
52.0216260506
 30
0.0
 11
-70.9382560049
 21
40.0515017338
 31
0.0
  0
LINE
  5
1D4
330
1F
100
AcDbEntity
  8
0
  6
Continuous
 62
     7
370
    25
100
AcDbLine
 10
-69.9232647866
 20
39.0365105154
 30
0.0
 11
-57.9531404697
 21
39.0365105154
 31
0.0
  0
LINE
  5
1D5
330
1F
100
AcDbEntity
  8
0
  6
Continuous
 62
     7
370
    25
100
AcDbLine
 10
-56.9381492514
 20
52.0216260506
 30
0.0
 11
-56.9381492514
 21
40.0515017338
 31
0.0
  0
LINE
  5
1D6
330
1F
100
AcDbEntity
  8
0
  6
Continuous
 62
     7
370
    25
100
AcDbLine
 10
-69.9232647866
 20
53.036617269
 30
0.0
 11
-57.9531404697
 21
53.036617269
 31
0.0
  0
LINE
  5
1D7
330
1F
100
AcDbEntity
  8
0
  6
Continuous
 62
     7
370
    25
100
AcDbLine
 10
-69.9232647866
 20
33.986617269
 30
0.0
 11
-57.9531404697
 21
33.986617269
 31
0.0
  0
LINE
  5
1D8
330
1F
100
AcDbEntity
  8
0
  6
Continuous
 62
     7
370
    25
100
AcDbLine
 10
-70.9382560049
 20
32.9716260506
 30
0.0
 11
-70.9382560049
 21
21.0015017338
 31
0.0
  0
LINE
  5
1D9
330
1F
100
AcDbEntity
  8
0
  6
Continuous
 62
     7
370
    25
100
AcDbLine
 10
-69.9232647866
 20
19.9865105154
 30
0.0
 11
-57.9531404697
 21
19.9865105154
 31
0.0
  0
LINE
  5
1DA
330
1F
100
AcDbEntity
  8
0
  6
Continuous
 62
     7
370
    25
100
AcDbLine
 10
-56.9381492514
 20
32.9716260506
 30
0.0
 11
-56.9381492514
 21
21.0015017338
 31
0.0
  0
LINE
  5
1DB
330
1F
100
AcDbEntity
  8
0
  6
Continuous
 62
     7
370
    25
100
AcDbLine
 10
-69.9232647866
 20
58.0865105154
 30
0.0
 11
-57.9531404697
 21
58.0865105154
 31
0.0
  0
LINE
  5
1DC
330
1F
100
AcDbEntity
  8
0
  6
Continuous
 62
     7
370
    25
100
AcDbLine
 10
-56.9381492514
 20
71.0716260506
 30
0.0
 11
-56.9381492514
 21
59.1015017338
 31
0.0
  0
LINE
  5
1DD
330
1F
100
AcDbEntity
  8
0
  6
Continuous
 62
     7
370
    25
100
AcDbLine
 10
-69.9232647866
 20
72.086617269
 30
0.0
 11
-57.9531404697
 21
72.086617269
 31
0.0
  0
LINE
  5
1DE
330
1F
100
AcDbEntity
  8
0
  6
Continuous
 62
     7
370
    25
100
AcDbLine
 10
-70.9382560049
 20
71.0716260506
 30
0.0
 11
-70.9382560049
 21
59.1015017338
 31
0.0
  0
LINE
  5
1DF
330
1F
100
AcDbEntity
  8
0
  6
Continuous
 62
     7
370
    25
100
AcDbLine
 10
-69.9232647866
 20
91.136617269
 30
0.0
 11
-57.9531404697
 21
91.136617269
 31
0.0
  0
LINE
  5
1E0
330
1F
100
AcDbEntity
  8
0
  6
Continuous
 62
     7
370
    25
100
AcDbLine
 10
-70.9382560049
 20
90.1216260506
 30
0.0
 11
-70.9382560049
 21
78.1515017338
 31
0.0
  0
LINE
  5
1E1
330
1F
100
AcDbEntity
  8
0
  6
Continuous
 62
     7
370
    25
100
AcDbLine
 10
-69.9232647866
 20
77.1365105154
 30
0.0
 11
-57.9531404697
 21
77.1365105154
 31
0.0
  0
LINE
  5
1E2
330
1F
100
AcDbEntity
  8
0
  6
Continuous
 62
     7
370
    25
100
AcDbLine
 10
-56.9381492514
 20
90.1216260506
 30
0.0
 11
-56.9381492514
 21
78.1515017338
 31
0.0
  0
LINE
  5
1E3
330
1F
100
AcDbEntity
  8
0
  6
Continuous
 62
     7
370
    25
100
AcDbLine
 10
-50.982556946
 20
81.899117269
 30
0.0
 11
-38.9031938465
 21
81.899117269
 31
0.0
  0
LINE
  5
1E4
330
1F
100
AcDbEntity
  8
0
  6
Continuous
 62
     7
370
    25
100
AcDbLine
 10
-37.8882026282
 20
94.8841260506
 30
0.0
 11
-37.8882026282
 21
82.9141084873
 31
0.0
  0
LINE
  5
1E5
330
1F
100
AcDbEntity
  8
0
  6
Continuous
 62
     7
370
    25
100
AcDbLine
 10
-50.8732114098
 20
95.899117269
 30
0.0
 11
-38.9031938465
 21
95.899117269
 31
0.0
  0
LINE
  5
1E6
330
1F
100
AcDbEntity
  8
0
  6
Continuous
 62
     7
370
    25
100
AcDbLine
 10
-51.8882026282
 20
94.8841260506
 30
0.0
 11
-51.8882026282
 21
82.8047629511
 31
0.0
  0
LINE
  5
1E7
330
1F
100
AcDbEntity
  8
0
  6
Continuous
 62
     7
370
    25
100
AcDbLine
 10
6.2767885902
 20
105.949117269
 30
0.0
 11
18.2469129071
 21
105.949117269
 31
0.0
  0
LINE
  5
1E8
330
1F
100
AcDbEntity
  8
0
  6
Continuous
 62
     7
370
    25
100
AcDbLine
 10
5.2617973718
 20
104.9341260506
 30
0.0
 11
5.2617973718
 21
92.9640017338
 31
0.0
  0
LINE
  5
1E9
330
1F
100
AcDbEntity
  8
0
  6
Continuous
 62
     7
370
    25
100
AcDbLine
 10
6.2767885902
 20
91.9490105154
 30
0.0
 11
18.2469129071
 21
91.9490105154
 31
0.0
  0
LINE
  5
1EA
330
1F
100
AcDbEntity
  8
0
  6
Continuous
 62
     7
370
    25
100
AcDbLine
 10
19.2619041254
 20
104.9341260506
 30
0.0
 11
19.2619041254
 21
92.9640017338
 31
0.0
  0
LINE
  5
1EB
330
1F
100
AcDbEntity
  8
0
  6
Continuous
 62
     7
370
    25
100
AcDbLine
 10
-12.7732114098
 20
91.9490105154
 30
0.0
 11
-0.8030870929
 21
91.9490105154
 31
0.0
  0
LINE
  5
1EC
330
1F
100
AcDbEntity
  8
0
  6
Continuous
 62
     7
370
    25
100
AcDbLine
 10
0.2119041254
 20
104.9341260506
 30
0.0
 11
0.2119041254
 21
92.9640017338
 31
0.0
  0
LINE
  5
1ED
330
1F
100
AcDbEntity
  8
0
  6
Continuous
 62
     7
370
    25
100
AcDbLine
 10
-12.7732114098
 20
105.949117269
 30
0.0
 11
-0.8030870929
 21
105.949117269
 31
0.0
  0
LINE
  5
1EE
330
1F
100
AcDbEntity
  8
0
  6
Continuous
 62
     7
370
    25
100
AcDbLine
 10
-13.7882026282
 20
104.9341260506
 30
0.0
 11
-13.7882026282
 21
92.9640017338
 31
0.0
  0
LINE
  5
1EF
330
1F
100
AcDbEntity
  8
0
  6
Continuous
 62
     7
370
    25
100
AcDbLine
 10
-31.8232114098
 20
94.9490105154
 30
0.0
 11
-19.8530870929
 21
94.9490105154
 31
0.0
  0
LINE
  5
1F0
330
1F
100
AcDbEntity
  8
0
  6
Continuous
 62
     7
370
    25
100
AcDbLine
 10
-18.8380958746
 20
107.9341260506
 30
0.0
 11
-18.8380958746
 21
95.9640017338
 31
0.0
  0
LINE
  5
1F1
330
1F
100
AcDbEntity
  8
0
  6
Continuous
 62
     7
370
    25
100
AcDbLine
 10
-31.8232114098
 20
108.949117269
 30
0.0
 11
-19.8530870929
 21
108.949117269
 31
0.0
  0
LINE
  5
1F2
330
1F
100
AcDbEntity
  8
0
  6
Continuous
 62
     7
370
    25
100
AcDbLine
 10
-32.8382026282
 20
107.9341260506
 30
0.0
 11
-32.8382026282
 21
95.9640017338
 31
0.0
  0
LINE
  5
1F3
330
1F
100
AcDbEntity
  8
0
  6
Continuous
 62
     7
370
    25
100
AcDbLine
 10
-95.0381492514
 20
104.4091260506
 30
0.0
 11
-95.0381492514
 21
92.4390017338
 31
0.0
  0
LINE
  5
1F4
330
1F
100
AcDbEntity
  8
0
  6
Continuous
 62
     7
370
    25
100
AcDbLine
 10
-108.0232647866
 20
105.424117269
 30
0.0
 11
-96.0531404697
 21
105.424117269
 31
0.0
  0
LINE
  5
1F5
330
1F
100
AcDbEntity
  8
0
  6
Continuous
 62
     7
370
    25
100
AcDbLine
 10
-109.0382560049
 20
104.4091260506
 30
0.0
 11
-109.0382560049
 21
92.4390017338
 31
0.0
  0
LINE
  5
1F6
330
1F
100
AcDbEntity
  8
0
  6
Continuous
 62
     7
370
    25
100
AcDbLine
 10
-108.0232647866
 20
91.4240105154
 30
0.0
 11
-96.0531404697
 21
91.4240105154
 31
0.0
  0
LINE
  5
1F7
330
1F
100
AcDbEntity
  8
0
  6
Continuous
 62
     7
370
    25
100
AcDbLine
 10
-75.9881492514
 20
104.4091260506
 30
0.0
 11
-75.9881492514
 21
92.4390017338
 31
0.0
  0
LINE
  5
1F8
330
1F
100
AcDbEntity
  8
0
  6
Continuous
 62
     7
370
    25
100
AcDbLine
 10
-88.9732647866
 20
105.424117269
 30
0.0
 11
-77.0031404697
 21
105.424117269
 31
0.0
  0
LINE
  5
1F9
330
1F
100
AcDbEntity
  8
0
  6
Continuous
 62
     7
370
    25
100
AcDbLine
 10
-89.9882560049
 20
104.4091260506
 30
0.0
 11
-89.9882560049
 21
92.4390017338
 31
0.0
  0
LINE
  5
1FA
330
1F
100
AcDbEntity
  8
0
  6
Continuous
 62
     7
370
    25
100
AcDbLine
 10
-88.9732647866
 20
91.4240105154
 30
0.0
 11
-77.0031404697
 21
91.4240105154
 31
0.0
  0
LINE
  5
1FB
330
1F
100
AcDbEntity
  8
0
  6
Continuous
 62
     7
370
    25
100
AcDbLine
 10
-69.9232647866
 20
96.1865105154
 30
0.0
 11
-57.9531404697
 21
96.1865105154
 31
0.0
  0
LINE
  5
1FC
330
1F
100
AcDbEntity
  8
0
  6
Continuous
 62
     7
370
    25
100
AcDbLine
 10
-56.9381492514
 20
109.1716260506
 30
0.0
 11
-56.9381492514
 21
97.2015017338
 31
0.0
  0
LINE
  5
1FD
330
1F
100
AcDbEntity
  8
0
  6
Continuous
 62
     7
370
    25
100
AcDbLine
 10
-69.9232647866
 20
110.186617269
 30
0.0
 11
-57.9531404697
 21
110.186617269
 31
0.0
  0
LINE
  5
1FE
330
1F
100
AcDbEntity
  8
0
  6
Continuous
 62
     7
370
    25
100
AcDbLine
 10
-70.9382560049
 20
109.1716260506
 30
0.0
 11
-70.9382560049
 21
97.2015017338
 31
0.0
  0
LINE
  5
1FF
330
1F
100
AcDbEntity
  8
0
  6
Continuous
 62
     7
370
    25
100
AcDbLine
 10
-50.8732114098
 20
114.949117269
 30
0.0
 11
-38.9031938465
 21
114.949117269
 31
0.0
  0
LINE
  5
200
330
1F
100
AcDbEntity
  8
0
  6
Continuous
 62
     7
370
    25
100
AcDbLine
 10
-51.8882026282
 20
113.9341260506
 30
0.0
 11
-51.8882026282
 21
101.8547629511
 31
0.0
  0
LINE
  5
201
330
1F
100
AcDbEntity
  8
0
  6
Continuous
 62
     7
370
    25
100
AcDbLine
 10
-50.982556946
 20
100.949117269
 30
0.0
 11
-38.9031938465
 21
100.949117269
 31
0.0
  0
LINE
  5
202
330
1F
100
AcDbEntity
  8
0
  6
Continuous
 62
     7
370
    25
100
AcDbLine
 10
-37.8882026282
 20
113.9341260506
 30
0.0
 11
-37.8882026282
 21
101.9641084873
 31
0.0
  0
LINE
  5
203
330
1F
100
AcDbEntity
  8
0
  6
Continuous
 62
     7
370
    25
100
AcDbLine
 10
-17.5489845339
 20
5.3579637871
 30
0.0
 11
-6.5179362801
 21
3.4128923544
 31
0.0
  0
LINE
  5
204
330
1F
100
AcDbEntity
  8
0
  6
Continuous
 62
     7
370
    25
100
AcDbLine
 10
-112.7762026282
 20
5.449117269
 30
0.0
 11
-18.5908735999
 21
5.449117269
 31
0.0
  0
LINE
  5
205
330
1F
100
AcDbEntity
  8
0
  6
Continuous
 62
     7
370
    25
100
AcDbLine
 10
-118.7762026282
 20
118.649117269
 30
0.0
 11
-118.7762026282
 21
11.449117269
 31
0.0
  0
LINE
  5
206
330
1F
100
AcDbEntity
  8
0
  6
Continuous
 62
     7
370
    25
100
AcDbLine
 10
23.0237929643
 20
124.649117269
 30
0.0
 11
-112.7762026282
 21
124.649117269
 31
0.0
  0
LINE
  5
207
330
1F
100
AcDbEntity
  8
0
  6
Continuous
 62
     7
370
    25
100
AcDbLine
 10
29.0237929643
 20
38.4201459009
 30
0.0
 11
29.0237929643
 21
118.649117269
 31
0.0
  0
LINE
  5
208
330
1F
100
AcDbEntity
  8
0
  6
Continuous
 62
     7
370
    25
100
AcDbLine
 10
33.2022683396
 20
28.9983969462
 30
0.0
 11
29.7142663539
 21
35.6257001285
 31
0.0
  0
LINE
  5
209
330
1F
100
AcDbEntity
  8
0
  6
Continuous
 62
     7
370
    25
100
AcDbLine
 10
57.9562757915
 20
13.6383632401
 30
0.0
 11
35.5117949499
 21
26.5966902958
 31
0.0
  0
LINE
  5
20A
330
1F
100
AcDbEntity
  8
0
  6
Continuous
 62
     7
370
    25
100
AcDbLine
 10
44.7462901842
 20
-21.2420029991
 30
0.0
 11
60.1524282142
 21
5.4422108174
 31
0.0
  0
LINE
  5
20B
330
1F
100
AcDbEntity
  8
0
  6
Continuous
 62
     7
370
    25
100
AcDbLine
 10
20.8420070146
 20
-14.3690619066
 30
0.0
 11
36.5501377615
 21
-23.4381554218
 31
0.0
  0
LINE
  5
20C
330
1F
100
AcDbEntity
  8
0
  6
Continuous
 62
     7
370
    25
100
AcDbLine
 10
-3.8948616239
 20
-5.2685745239
 30
0.0
 11
19.8941278746
 21
-13.9270586046
 31
0.0
  0
LINE
  5
20D
330
1F
100
AcDbEntity
  8
0
  6
Continuous
 62
     7
370
    25
100
AcDbLine
 10
-4.6028251723
 20
0.0958226136
 30
0.0
 11
-5.3890428176
 21
-2.0642926136
 31
0.0
  0
LINE
  5
20E
330
1F
100
AcDbEntity
  8
0
  6
Continuous
 62
     7
370
    25
100
AcDbLine
 10
-50.982556946
 20
62.849117269
 30
0.0
 11
-38.9031938465
 21
62.849117269
 31
0.0
  0
LINE
  5
20F
330
1F
100
AcDbEntity
  8
0
  6
Continuous
 62
     7
370
    25
100
AcDbLine
 10
-37.8882026282
 20
75.8341260506
 30
0.0
 11
-37.8882026282
 21
63.8641084873
 31
0.0
  0
LINE
  5
210
330
1F
100
AcDbEntity
  8
0
  6
Continuous
 62
     7
370
    25
100
AcDbLine
 10
-50.8732114098
 20
76.849117269
 30
0.0
 11
-38.9031938465
 21
76.849117269
 31
0.0
  0
LINE
  5
211
330
1F
100
AcDbEntity
  8
0
  6
Continuous
 62
     7
370
    25
100
AcDbLine
 10
-51.8882026282
 20
75.8341260506
 30
0.0
 11
-51.8882026282
 21
63.7547629511
 31
0.0
  0
LINE
  5
212
330
1F
100
AcDbEntity
  8
0
  6
Continuous
 62
     7
370
    25
100
AcDbLine
 10
-50.982556946
 20
43.799117269
 30
0.0
 11
-38.9031938465
 21
43.799117269
 31
0.0
  0
LINE
  5
213
330
1F
100
AcDbEntity
  8
0
  6
Continuous
 62
     7
370
    25
100
AcDbLine
 10
-37.8882026282
 20
56.7841260506
 30
0.0
 11
-37.8882026282
 21
44.8141084873
 31
0.0
  0
LINE
  5
214
330
1F
100
AcDbEntity
  8
0
  6
Continuous
 62
     7
370
    25
100
AcDbLine
 10
-50.8732114098
 20
57.799117269
 30
0.0
 11
-38.9031938465
 21
57.799117269
 31
0.0
  0
LINE
  5
215
330
1F
100
AcDbEntity
  8
0
  6
Continuous
 62
     7
370
    25
100
AcDbLine
 10
-51.8882026282
 20
56.7841260506
 30
0.0
 11
-51.8882026282
 21
44.7047629511
 31
0.0
  0
LINE
  5
216
330
1F
100
AcDbEntity
  8
0
  6
Continuous
 62
     7
370
    25
100
AcDbLine
 10
-50.982556946
 20
24.749117269
 30
0.0
 11
-38.9031938465
 21
24.749117269
 31
0.0
  0
LINE
  5
217
330
1F
100
AcDbEntity
  8
0
  6
Continuous
 62
     7
370
    25
100
AcDbLine
 10
-37.8882026282
 20
37.7341260506
 30
0.0
 11
-37.8882026282
 21
25.7641084873
 31
0.0
  0
LINE
  5
218
330
1F
100
AcDbEntity
  8
0
  6
Continuous
 62
     7
370
    25
100
AcDbLine
 10
-50.8732114098
 20
38.749117269
 30
0.0
 11
-38.9031938465
 21
38.749117269
 31
0.0
  0
LINE
  5
219
330
1F
100
AcDbEntity
  8
0
  6
Continuous
 62
     7
370
    25
100
AcDbLine
 10
-51.8882026282
 20
37.7341260506
 30
0.0
 11
-51.8882026282
 21
25.6547629511
 31
0.0
  0
LINE
  5
21A
330
1F
100
AcDbEntity
  8
0
  6
Continuous
 62
     7
370
    25
100
AcDbLine
 10
6.2767885902
 20
34.7990105154
 30
0.0
 11
18.2469129071
 21
34.7990105154
 31
0.0
  0
LINE
  5
21B
330
1F
100
AcDbEntity
  8
0
  6
Continuous
 62
     7
370
    25
100
AcDbLine
 10
19.2619041254
 20
47.7841260506
 30
0.0
 11
19.2619041254
 21
35.8140017338
 31
0.0
  0
LINE
  5
21C
330
1F
100
AcDbEntity
  8
0
  6
Continuous
 62
     7
370
    25
100
AcDbLine
 10
6.2767885902
 20
48.799117269
 30
0.0
 11
18.2469129071
 21
48.799117269
 31
0.0
  0
LINE
  5
21D
330
1F
100
AcDbEntity
  8
0
  6
Continuous
 62
     7
370
    25
100
AcDbLine
 10
5.2617973718
 20
47.7841260506
 30
0.0
 11
5.2617973718
 21
35.8140017338
 31
0.0
  0
LINE
  5
21E
330
1F
100
AcDbEntity
  8
0
  6
Continuous
 62
     7
370
    25
100
AcDbLine
 10
6.2767885902
 20
67.849117269
 30
0.0
 11
18.2469129071
 21
67.849117269
 31
0.0
  0
LINE
  5
21F
330
1F
100
AcDbEntity
  8
0
  6
Continuous
 62
     7
370
    25
100
AcDbLine
 10
5.2617973718
 20
66.8341260506
 30
0.0
 11
5.2617973718
 21
54.8640017338
 31
0.0
  0
LINE
  5
220
330
1F
100
AcDbEntity
  8
0
  6
Continuous
 62
     7
370
    25
100
AcDbLine
 10
6.2767885902
 20
53.8490105154
 30
0.0
 11
18.2469129071
 21
53.8490105154
 31
0.0
  0
LINE
  5
221
330
1F
100
AcDbEntity
  8
0
  6
Continuous
 62
     7
370
    25
100
AcDbLine
 10
19.2619041254
 20
66.8341260506
 30
0.0
 11
19.2619041254
 21
54.8640017338
 31
0.0
  0
LINE
  5
222
330
1F
100
AcDbEntity
  8
0
  6
Continuous
 62
     7
370
    25
100
AcDbLine
 10
19.2619041254
 20
85.8841260506
 30
0.0
 11
19.2619041254
 21
73.9140017338
 31
0.0
  0
LINE
  5
223
330
1F
100
AcDbEntity
  8
0
  6
Continuous
 62
     7
370
    25
100
AcDbLine
 10
6.2767885902
 20
86.899117269
 30
0.0
 11
18.2469129071
 21
86.899117269
 31
0.0
  0
LINE
  5
224
330
1F
100
AcDbEntity
  8
0
  6
Continuous
 62
     7
370
    25
100
AcDbLine
 10
5.2617973718
 20
85.8841260506
 30
0.0
 11
5.2617973718
 21
73.9140017338
 31
0.0
  0
LINE
  5
225
330
1F
100
AcDbEntity
  8
0
  6
Continuous
 62
     7
370
    25
100
AcDbLine
 10
6.2767885902
 20
72.8990105154
 30
0.0
 11
18.2469129071
 21
72.8990105154
 31
0.0
  0
LINE
  5
226
330
1F
100
AcDbEntity
  8
0
  6
Continuous
 62
     7
370
    25
100
AcDbLine
 10
-10.5217280036
 20
14.0185488162
 30
0.0
 11
1.2665432282
 21
11.9399585421
 31
0.0
  0
LINE
  5
227
330
1F
100
AcDbEntity
  8
0
  6
Continuous
 62
     7
370
    25
100
AcDbLine
 10
4.5209560987
 20
24.5515496195
 30
0.0
 11
2.4423658247
 21
12.7632783878
 31
0.0
  0
LINE
  5
228
330
1F
100
AcDbEntity
  8
0
  6
Continuous
 62
     7
370
    25
100
AcDbLine
 10
-8.0906349787
 20
27.8059624901
 30
0.0
 11
3.6976362531
 21
25.727372216
 31
0.0
  0
LINE
  5
229
330
1F
100
AcDbEntity
  8
0
  6
Continuous
 62
     7
370
    25
100
AcDbLine
 10
-9.2664575752
 20
26.9826426444
 30
0.0
 11
-11.3450478493
 21
15.1943714127
 31
0.0
  0
LINE
  5
22A
330
1F
100
AcDbEntity
  8
0
  6
Continuous
 62
     7
370
    25
100
AcDbLine
 10
20.0671881128
 20
1.3129349208
 30
0.0
 11
8.8189506224
 21
5.4069585552
 31
0.0
  0
LINE
  5
22B
330
1F
100
AcDbEntity
  8
0
  6
Continuous
 62
     7
370
    25
100
AcDbLine
 10
25.4621389473
 20
13.1678047273
 30
0.0
 11
21.3681153128
 21
1.9195672368
 31
0.0
  0
LINE
  5
22C
330
1F
100
AcDbEntity
  8
0
  6
Continuous
 62
     7
370
    25
100
AcDbLine
 10
13.6072691408
 20
18.5627555618
 30
0.0
 11
24.8555066313
 21
14.4687319273
 31
0.0
  0
LINE
  5
22D
330
1F
100
AcDbEntity
  8
0
  6
Continuous
 62
     7
370
    25
100
AcDbLine
 10
8.2123183063
 20
6.7078857553
 30
0.0
 11
12.3063419408
 21
17.9561232457
 31
0.0
  0
LINE
  5
22E
330
1F
100
AcDbEntity
  8
0
  6
Continuous
 62
     7
370
    25
100
AcDbLine
 10
39.7236859594
 20
-8.7156590395
 30
0.0
 11
29.3572542146
 21
-2.7305968811
 31
0.0
  0
LINE
  5
22F
330
1F
100
AcDbEntity
  8
0
  6
Continuous
 62
     7
370
    25
100
AcDbLine
 10
47.0952519068
 20
2.0222852759
 30
0.0
 11
41.1101897483
 21
-8.344146469
 31
0.0
  0
LINE
  5
230
330
1F
100
AcDbEntity
  8
0
  6
Continuous
 62
     7
370
    25
100
AcDbLine
 10
36.3573075914
 20
9.3938512232
 30
0.0
 11
46.7237393362
 21
3.4087890648
 31
0.0
  0
LINE
  5
231
330
1F
100
AcDbEntity
  8
0
  6
Continuous
 62
     7
370
    25
100
AcDbLine
 10
28.985741644
 20
-1.3440930922
 30
0.0
 11
34.9708038025
 21
9.0223386527
 31
0.0
  0
LINE
  5
232
330
1F
100
AcDbEntity
  8
0
  6
Continuous
 62
     7
370
    25
100
AcDbLine
 10
-88.9732647866
 20
48.274117269
 30
0.0
 11
-77.0031404697
 21
48.274117269
 31
0.0
  0
LINE
  5
233
330
1F
100
AcDbEntity
  8
0
  6
Continuous
 62
     7
370
    25
100
AcDbLine
 10
0.2119041254
 20
66.8341260506
 30
0.0
 11
0.2119041254
 21
54.8640017338
 31
0.0
  0
LINE
  5
234
330
1F
100
AcDbEntity
  8
0
  6
Continuous
 62
     7
370
    25
100
AcDbLine
 10
-12.7732114098
 20
67.849117269
 30
0.0
 11
-0.8030870929
 21
67.849117269
 31
0.0
  0
LINE
  5
235
330
1F
100
AcDbEntity
  8
0
  6
Continuous
 62
     7
370
    25
100
AcDbLine
 10
-13.7882026282
 20
66.8341260506
 30
0.0
 11
-13.7882026282
 21
54.8640017338
 31
0.0
  0
LINE
  5
236
330
1F
100
AcDbEntity
  8
0
  6
Continuous
 62
     7
370
    25
100
AcDbLine
 10
-12.7732114098
 20
53.8490105154
 30
0.0
 11
-0.8030870929
 21
53.8490105154
 31
0.0
  0
LINE
  5
237
330
1F
100
AcDbEntity
  8
0
  6
Continuous
 62
     7
370
    25
100
AcDbLine
 10
0.2119041254
 20
47.7841260506
 30
0.0
 11
0.2119041254
 21
35.8140017338
 31
0.0
  0
LINE
  5
238
330
1F
100
AcDbEntity
  8
0
  6
Continuous
 62
     7
370
    25
100
AcDbLine
 10
-12.7732114098
 20
48.799117269
 30
0.0
 11
-0.8030870929
 21
48.799117269
 31
0.0
  0
LINE
  5
239
330
1F
100
AcDbEntity
  8
0
  6
Continuous
 62
     7
370
    25
100
AcDbLine
 10
-13.7882026282
 20
47.7841260506
 30
0.0
 11
-13.7882026282
 21
35.8140017338
 31
0.0
  0
LINE
  5
23A
330
1F
100
AcDbEntity
  8
0
  6
Continuous
 62
     7
370
    25
100
AcDbLine
 10
-12.7732114098
 20
34.7990105154
 30
0.0
 11
-0.8030870929
 21
34.7990105154
 31
0.0
  0
ARC
  5
23B
330
1F
100
AcDbEntity
  8
0
  6
Continuous
 62
     7
370
    25
100
AcDbCircle
 10
-0.1416492652
 20
86.5455638784
 30
0.0
 40
0.750000000000011
100
AcDbArc
 50
298.1255057021
 51
151.8744942979
  0
ARC
  5
23C
330
1F
100
AcDbEntity
  8
0
  6
Continuous
 62
     7
370
    25
100
AcDbCircle
 10
-13.4346492376
 20
86.5455638784
 30
0.0
 40
0.7500000000000102
100
AcDbArc
 50
28.1255057021
 51
241.8744942979
  0
ARC
  5
23D
330
1F
100
AcDbEntity
  8
0
  6
Continuous
 62
     7
370
    25
100
AcDbCircle
 10
-13.4346492376
 20
73.252563906
 30
0.0
 40
0.7500000000000001
100
AcDbArc
 50
118.1255057021
 51
331.8744942979
  0
ARC
  5
23E
330
1F
100
AcDbEntity
  8
0
  6
Continuous
 62
     7
370
    25
100
AcDbCircle
 10
-0.1416492652
 20
73.252563906
 30
0.0
 40
0.7500000000000099
100
AcDbArc
 50
208.1255057021
 51
61.8744942979
  0
ARC
  5
23F
330
1F
100
AcDbEntity
  8
0
  6
Continuous
 62
     7
370
    25
100
AcDbCircle
 10
-32.4846492376
 20
51.4455638784
 30
0.0
 40
0.7500000000000071
100
AcDbArc
 50
28.1255057021
 51
241.8744942979
  0
ARC
  5
240
330
1F
100
AcDbEntity
  8
0
  6
Continuous
 62
     7
370
    25
100
AcDbCircle
 10
-32.4846492376
 20
38.152563906
 30
0.0
 40
0.7500000000000033
100
AcDbArc
 50
118.1255057021
 51
331.8744942979
  0
ARC
  5
241
330
1F
100
AcDbEntity
  8
0
  6
Continuous
 62
     7
370
    25
100
AcDbCircle
 10
-19.1916492652
 20
38.152563906
 30
0.0
 40
0.7500000000000085
100
AcDbArc
 50
208.1255057021
 51
61.8744942979
  0
ARC
  5
242
330
1F
100
AcDbEntity
  8
0
  6
Continuous
 62
     7
370
    25
100
AcDbCircle
 10
-19.1916492652
 20
51.4455638784
 30
0.0
 40
0.7500000000000165
100
AcDbArc
 50
298.1255057021
 51
151.8744942979
  0
ARC
  5
243
330
1F
100
AcDbEntity
  8
0
  6
Continuous
 62
     7
370
    25
100
AcDbCircle
 10
-19.1916492652
 20
19.102563906
 30
0.0
 40
0.7500000000000095
100
AcDbArc
 50
208.1255057021
 51
61.8744942979
  0
ARC
  5
244
330
1F
100
AcDbEntity
  8
0
  6
Continuous
 62
     7
370
    25
100
AcDbCircle
 10
-19.1916492652
 20
32.3955638784
 30
0.0
 40
0.7500000000000067
100
AcDbArc
 50
298.1255057021
 51
151.8744942979
  0
ARC
  5
245
330
1F
100
AcDbEntity
  8
0
  6
Continuous
 62
     7
370
    25
100
AcDbCircle
 10
-32.4846492376
 20
32.3955638784
 30
0.0
 40
0.7500000000000003
100
AcDbArc
 50
28.1255057021
 51
241.8744942979
  0
ARC
  5
246
330
1F
100
AcDbEntity
  8
0
  6
Continuous
 62
     7
370
    25
100
AcDbCircle
 10
-32.4846492376
 20
19.102563906
 30
0.0
 40
0.7500000000000003
100
AcDbArc
 50
118.1255057021
 51
331.8744942979
  0
ARC
  5
247
330
1F
100
AcDbEntity
  8
0
  6
Continuous
 62
     7
370
    25
100
AcDbCircle
 10
-32.4846492376
 20
57.202563906
 30
0.0
 40
0.7500000000000036
100
AcDbArc
 50
118.1255057021
 51
331.8744942979
  0
ARC
  5
248
330
1F
100
AcDbEntity
  8
0
  6
Continuous
 62
     7
370
    25
100
AcDbCircle
 10
-19.1916492652
 20
57.202563906
 30
0.0
 40
0.7500000000000102
100
AcDbArc
 50
208.1255057021
 51
61.8744942979
  0
ARC
  5
249
330
1F
100
AcDbEntity
  8
0
  6
Continuous
 62
     7
370
    25
100
AcDbCircle
 10
-19.1916492652
 20
70.4955638784
 30
0.0
 40
0.7500000000000119
100
AcDbArc
 50
298.1255057021
 51
151.8744942979
  0
ARC
  5
24A
330
1F
100
AcDbEntity
  8
0
  6
Continuous
 62
     7
370
    25
100
AcDbCircle
 10
-32.4846492376
 20
70.4955638784
 30
0.0
 40
0.750000000000013
100
AcDbArc
 50
28.1255057021
 51
241.8744942979
  0
ARC
  5
24B
330
1F
100
AcDbEntity
  8
0
  6
Continuous
 62
     7
370
    25
100
AcDbCircle
 10
-19.1916492652
 20
89.5455638784
 30
0.0
 40
0.7500000000000211
100
AcDbArc
 50
298.1255057021
 51
151.8744942979
  0
ARC
  5
24C
330
1F
100
AcDbEntity
  8
0
  6
Continuous
 62
     7
370
    25
100
AcDbCircle
 10
-32.4846492376
 20
89.5455638784
 30
0.0
 40
0.7500000000000192
100
AcDbArc
 50
28.1255057021
 51
241.8744942979
  0
ARC
  5
24D
330
1F
100
AcDbEntity
  8
0
  6
Continuous
 62
     7
370
    25
100
AcDbCircle
 10
-32.4846492376
 20
76.252563906
 30
0.0
 40
0.7500000000000062
100
AcDbArc
 50
118.1255057021
 51
331.8744942979
  0
ARC
  5
24E
330
1F
100
AcDbEntity
  8
0
  6
Continuous
 62
     7
370
    25
100
AcDbCircle
 10
-19.1916492652
 20
76.252563906
 30
0.0
 40
0.7500000000000062
100
AcDbArc
 50
208.1255057021
 51
61.8744942979
  0
ARC
  5
24F
330
1F
100
AcDbEntity
  8
0
  6
Continuous
 62
     7
370
    25
100
AcDbCircle
 10
-108.6847026144
 20
47.9205638784
 30
0.0
 40
0.7500000000000098
100
AcDbArc
 50
28.1255057021
 51
241.8744942979
  0
ARC
  5
250
330
1F
100
AcDbEntity
  8
0
  6
Continuous
 62
     7
370
    25
100
AcDbCircle
 10
-108.6847026144
 20
34.627563906
 30
0.0
 40
0.7499999999999981
100
AcDbArc
 50
118.1255057021
 51
331.8744942979
  0
ARC
  5
251
330
1F
100
AcDbEntity
  8
0
  6
Continuous
 62
     7
370
    25
100
AcDbCircle
 10
-95.391702642
 20
34.627563906
 30
0.0
 40
0.750000000000001
100
AcDbArc
 50
208.1255057021
 51
61.8744942979
  0
ARC
  5
252
330
1F
100
AcDbEntity
  8
0
  6
Continuous
 62
     7
370
    25
100
AcDbCircle
 10
-95.391702642
 20
47.9205638784
 30
0.0
 40
0.7500000000000069
100
AcDbArc
 50
298.1255057021
 51
151.8744942979
  0
ARC
  5
253
330
1F
100
AcDbEntity
  8
0
  6
Continuous
 62
     7
370
    25
100
AcDbCircle
 10
-95.391702642
 20
28.8705638784
 30
0.0
 40
0.7500000000000077
100
AcDbArc
 50
298.1255057021
 51
151.8744942979
  0
ARC
  5
254
330
1F
100
AcDbEntity
  8
0
  6
Continuous
 62
     7
370
    25
100
AcDbCircle
 10
-108.6847026144
 20
28.8705638784
 30
0.0
 40
0.7500000000000134
100
AcDbArc
 50
28.1255057021
 51
241.8744942979
  0
ARC
  5
255
330
1F
100
AcDbEntity
  8
0
  6
Continuous
 62
     7
370
    25
100
AcDbCircle
 10
-108.6847026144
 20
15.577563906
 30
0.0
 40
0.7500000000000216
100
AcDbArc
 50
118.1255057021
 51
331.8744942979
  0
ARC
  5
256
330
1F
100
AcDbEntity
  8
0
  6
Continuous
 62
     7
370
    25
100
AcDbCircle
 10
-95.391702642
 20
15.577563906
 30
0.0
 40
0.7500000000000043
100
AcDbArc
 50
208.1255057021
 51
61.8744942979
  0
ARC
  5
257
330
1F
100
AcDbEntity
  8
0
  6
Continuous
 62
     7
370
    25
100
AcDbCircle
 10
-108.6847026144
 20
53.677563906
 30
0.0
 40
0.7499999999999981
100
AcDbArc
 50
118.1255057021
 51
331.8744942979
  0
ARC
  5
258
330
1F
100
AcDbEntity
  8
0
  6
Continuous
 62
     7
370
    25
100
AcDbCircle
 10
-95.391702642
 20
53.677563906
 30
0.0
 40
0.750000000000001
100
AcDbArc
 50
208.1255057021
 51
61.8744942979
  0
ARC
  5
259
330
1F
100
AcDbEntity
  8
0
  6
Continuous
 62
     7
370
    25
100
AcDbCircle
 10
-95.391702642
 20
66.9705638784
 30
0.0
 40
0.7500000000000027
100
AcDbArc
 50
298.1255057021
 51
151.8744942979
  0
ARC
  5
25A
330
1F
100
AcDbEntity
  8
0
  6
Continuous
 62
     7
370
    25
100
AcDbCircle
 10
-108.6847026144
 20
66.9705638784
 30
0.0
 40
0.7499999999999977
100
AcDbArc
 50
28.1255057021
 51
241.8744942979
  0
ARC
  5
25B
330
1F
100
AcDbEntity
  8
0
  6
Continuous
 62
     7
370
    25
100
AcDbCircle
 10
-95.391702642
 20
72.727563906
 30
0.0
 40
0.7500000000000102
100
AcDbArc
 50
208.1255057021
 51
61.8744942979
  0
ARC
  5
25C
330
1F
100
AcDbEntity
  8
0
  6
Continuous
 62
     7
370
    25
100
AcDbCircle
 10
-95.391702642
 20
86.0205638784
 30
0.0
 40
0.7499999999999977
100
AcDbArc
 50
298.1255057021
 51
151.8744942979
  0
ARC
  5
25D
330
1F
100
AcDbEntity
  8
0
  6
Continuous
 62
     7
370
    25
100
AcDbCircle
 10
-108.6847026144
 20
86.0205638784
 30
0.0
 40
0.7500000000000152
100
AcDbArc
 50
28.1255057021
 51
241.8744942979
  0
ARC
  5
25E
330
1F
100
AcDbEntity
  8
0
  6
Continuous
 62
     7
370
    25
100
AcDbCircle
 10
-108.6847026144
 20
72.727563906
 30
0.0
 40
0.7499999999999852
100
AcDbArc
 50
118.1255057021
 51
331.8744942979
  0
ARC
  5
25F
330
1F
100
AcDbEntity
  8
0
  6
Continuous
 62
     7
370
    25
100
AcDbCircle
 10
-89.6347026144
 20
47.9205638784
 30
0.0
 40
0.7500000000000098
100
AcDbArc
 50
28.1255057021
 51
241.8744942979
  0
ARC
  5
260
330
1F
100
AcDbEntity
  8
0
  6
Continuous
 62
     7
370
    25
100
AcDbCircle
 10
-89.6347026144
 20
34.627563906
 30
0.0
 40
0.7500000000000128
100
AcDbArc
 50
118.1255057021
 51
331.8744942979
  0
ARC
  5
261
330
1F
100
AcDbEntity
  8
0
  6
Continuous
 62
     7
370
    25
100
AcDbCircle
 10
-76.341702642
 20
34.627563906
 30
0.0
 40
0.7500000000000036
100
AcDbArc
 50
208.1255057021
 51
61.8744942979
  0
ARC
  5
262
330
1F
100
AcDbEntity
  8
0
  6
Continuous
 62
     7
370
    25
100
AcDbCircle
 10
-76.341702642
 20
47.9205638784
 30
0.0
 40
0.7500000000000094
100
AcDbArc
 50
298.1255057021
 51
151.8744942979
  0
ARC
  5
263
330
1F
100
AcDbEntity
  8
0
  6
Continuous
 62
     7
370
    25
100
AcDbCircle
 10
-76.341702642
 20
28.8705638784
 30
0.0
 40
0.7500000000000036
100
AcDbArc
 50
298.1255057021
 51
151.8744942979
  0
ARC
  5
264
330
1F
100
AcDbEntity
  8
0
  6
Continuous
 62
     7
370
    25
100
AcDbCircle
 10
-89.6347026144
 20
28.8705638784
 30
0.0
 40
0.7500000000000134
100
AcDbArc
 50
28.1255057021
 51
241.8744942979
  0
ARC
  5
265
330
1F
100
AcDbEntity
  8
0
  6
Continuous
 62
     7
370
    25
100
AcDbCircle
 10
-89.6347026144
 20
15.577563906
 30
0.0
 40
0.7500000000000087
100
AcDbArc
 50
118.1255057021
 51
331.8744942979
  0
ARC
  5
266
330
1F
100
AcDbEntity
  8
0
  6
Continuous
 62
     7
370
    25
100
AcDbCircle
 10
-76.341702642
 20
15.577563906
 30
0.0
 40
0.7500000000000036
100
AcDbArc
 50
208.1255057021
 51
61.8744942979
  0
ARC
  5
267
330
1F
100
AcDbEntity
  8
0
  6
Continuous
 62
     7
370
    25
100
AcDbCircle
 10
-89.6347026144
 20
53.677563906
 30
0.0
 40
0.7500000000000128
100
AcDbArc
 50
118.1255057021
 51
331.8744942979
  0
ARC
  5
268
330
1F
100
AcDbEntity
  8
0
  6
Continuous
 62
     7
370
    25
100
AcDbCircle
 10
-76.341702642
 20
53.677563906
 30
0.0
 40
0.7500000000000128
100
AcDbArc
 50
208.1255057021
 51
61.8744942979
  0
ARC
  5
269
330
1F
100
AcDbEntity
  8
0
  6
Continuous
 62
     7
370
    25
100
AcDbCircle
 10
-76.341702642
 20
66.9705638784
 30
0.0
 40
0.7499999999999919
100
AcDbArc
 50
298.1255057021
 51
151.8744942979
  0
ARC
  5
26A
330
1F
100
AcDbEntity
  8
0
  6
Continuous
 62
     7
370
    25
100
AcDbCircle
 10
-89.6347026144
 20
66.9705638784
 30
0.0
 40
0.7499999999999968
100
AcDbArc
 50
28.1255057021
 51
241.8744942979
  0
ARC
  5
26B
330
1F
100
AcDbEntity
  8
0
  6
Continuous
 62
     7
370
    25
100
AcDbCircle
 10
-76.341702642
 20
72.727563906
 30
0.0
 40
0.7499999999999977
100
AcDbArc
 50
208.1255057021
 51
61.8744942979
  0
ARC
  5
26C
330
1F
100
AcDbEntity
  8
0
  6
Continuous
 62
     7
370
    25
100
AcDbCircle
 10
-76.341702642
 20
86.0205638784
 30
0.0
 40
0.7499999999999968
100
AcDbArc
 50
298.1255057021
 51
151.8744942979
  0
ARC
  5
26D
330
1F
100
AcDbEntity
  8
0
  6
Continuous
 62
     7
370
    25
100
AcDbCircle
 10
-89.6347026144
 20
86.0205638784
 30
0.0
 40
0.7499999999999968
100
AcDbArc
 50
28.1255057021
 51
241.8744942979
  0
ARC
  5
26E
330
1F
100
AcDbEntity
  8
0
  6
Continuous
 62
     7
370
    25
100
AcDbCircle
 10
-89.6347026144
 20
72.727563906
 30
0.0
 40
0.7499999999999968
100
AcDbArc
 50
118.1255057021
 51
331.8744942979
  0
ARC
  5
26F
330
1F
100
AcDbEntity
  8
0
  6
Continuous
 62
     7
370
    25
100
AcDbCircle
 10
-70.5847026144
 20
52.6830638784
 30
0.0
 40
0.7500000000000098
100
AcDbArc
 50
28.1255057021
 51
241.8744942979
  0
ARC
  5
270
330
1F
100
AcDbEntity
  8
0
  6
Continuous
 62
     7
370
    25
100
AcDbCircle
 10
-70.5847026144
 20
39.390063906
 30
0.0
 40
0.7500000000000069
100
AcDbArc
 50
118.1255057021
 51
331.8744942979
  0
ARC
  5
271
330
1F
100
AcDbEntity
  8
0
  6
Continuous
 62
     7
370
    25
100
AcDbCircle
 10
-57.291702642
 20
39.390063906
 30
0.0
 40
0.7500000000000006
100
AcDbArc
 50
208.1255057021
 51
61.8744942979
  0
ARC
  5
272
330
1F
100
AcDbEntity
  8
0
  6
Continuous
 62
     7
370
    25
100
AcDbCircle
 10
-57.291702642
 20
52.6830638784
 30
0.0
 40
0.7499999999999997
100
AcDbArc
 50
298.1255057021
 51
151.8744942979
  0
ARC
  5
273
330
1F
100
AcDbEntity
  8
0
  6
Continuous
 62
     7
370
    25
100
AcDbCircle
 10
-57.291702642
 20
33.6330638784
 30
0.0
 40
0.7499999999999997
100
AcDbArc
 50
298.1255057021
 51
151.8744942979
  0
ARC
  5
274
330
1F
100
AcDbEntity
  8
0
  6
Continuous
 62
     7
370
    25
100
AcDbCircle
 10
-70.5847026144
 20
33.6330638784
 30
0.0
 40
0.7500000000000102
100
AcDbArc
 50
28.1255057021
 51
241.8744942979
  0
ARC
  5
275
330
1F
100
AcDbEntity
  8
0
  6
Continuous
 62
     7
370
    25
100
AcDbCircle
 10
-70.5847026144
 20
20.340063906
 30
0.0
 40
0.7500000000000067
100
AcDbArc
 50
118.1255057021
 51
331.8744942979
  0
ARC
  5
276
330
1F
100
AcDbEntity
  8
0
  6
Continuous
 62
     7
370
    25
100
AcDbCircle
 10
-57.291702642
 20
20.340063906
 30
0.0
 40
0.7499999999999972
100
AcDbArc
 50
208.1255057021
 51
61.8744942979
  0
ARC
  5
277
330
1F
100
AcDbEntity
  8
0
  6
Continuous
 62
     7
370
    25
100
AcDbCircle
 10
-70.5847026144
 20
58.440063906
 30
0.0
 40
0.7500000000000069
100
AcDbArc
 50
118.1255057021
 51
331.8744942979
  0
ARC
  5
278
330
1F
100
AcDbEntity
  8
0
  6
Continuous
 62
     7
370
    25
100
AcDbCircle
 10
-57.291702642
 20
58.440063906
 30
0.0
 40
0.750000000000004
100
AcDbArc
 50
208.1255057021
 51
61.8744942979
  0
ARC
  5
279
330
1F
100
AcDbEntity
  8
0
  6
Continuous
 62
     7
370
    25
100
AcDbCircle
 10
-57.291702642
 20
71.7330638784
 30
0.0
 40
0.7499999999999963
100
AcDbArc
 50
298.1255057021
 51
151.8744942979
  0
ARC
  5
27A
330
1F
100
AcDbEntity
  8
0
  6
Continuous
 62
     7
370
    25
100
AcDbCircle
 10
-70.5847026144
 20
71.7330638784
 30
0.0
 40
0.7500000000000036
100
AcDbArc
 50
28.1255057021
 51
241.8744942979
  0
ARC
  5
27B
330
1F
100
AcDbEntity
  8
0
  6
Continuous
 62
     7
370
    25
100
AcDbCircle
 10
-57.291702642
 20
90.7830638784
 30
0.0
 40
0.7500000000000031
100
AcDbArc
 50
298.1255057021
 51
151.8744942979
  0
ARC
  5
27C
330
1F
100
AcDbEntity
  8
0
  6
Continuous
 62
     7
370
    25
100
AcDbCircle
 10
-70.5847026144
 20
90.7830638784
 30
0.0
 40
0.7499999999999968
100
AcDbArc
 50
28.1255057021
 51
241.8744942979
  0
ARC
  5
27D
330
1F
100
AcDbEntity
  8
0
  6
Continuous
 62
     7
370
    25
100
AcDbCircle
 10
-70.5847026144
 20
77.490063906
 30
0.0
 40
0.7499999999999977
100
AcDbArc
 50
118.1255057021
 51
331.8744942979
  0
ARC
  5
27E
330
1F
100
AcDbEntity
  8
0
  6
Continuous
 62
     7
370
    25
100
AcDbCircle
 10
-57.291702642
 20
77.490063906
 30
0.0
 40
0.750000000000004
100
AcDbArc
 50
208.1255057021
 51
61.8744942979
  0
ARC
  5
27F
330
1F
100
AcDbEntity
  8
0
  6
Continuous
 62
     7
370
    25
100
AcDbCircle
 10
-38.2417560188
 20
82.2526706596
 30
0.0
 40
0.7499999999999977
100
AcDbArc
 50
208.1255057021
 51
61.8744942979
  0
ARC
  5
280
330
1F
100
AcDbEntity
  8
0
  6
Continuous
 62
     7
370
    25
100
AcDbCircle
 10
-38.2417560188
 20
95.5455638784
 30
0.0
 40
0.7500000000000031
100
AcDbArc
 50
298.1255057021
 51
151.8744942979
  0
ARC
  5
281
330
1F
100
AcDbEntity
  8
0
  6
Continuous
 62
     7
370
    25
100
AcDbCircle
 10
-51.5346492376
 20
95.5455638784
 30
0.0
 40
0.7499999999999972
100
AcDbArc
 50
28.1255057021
 51
241.8744942979
  0
ARC
  5
282
330
1F
100
AcDbEntity
  8
0
  6
Continuous
 62
     7
370
    25
100
AcDbCircle
 10
-51.7114259329
 20
82.0758939643
 30
0.0
 40
0.7499999999999966
100
AcDbArc
 50
103.6330222254
 51
346.3669777746
  0
ARC
  5
283
330
1F
100
AcDbEntity
  8
0
  6
Continuous
 62
     7
370
    25
100
AcDbCircle
 10
18.9083507348
 20
105.5955638784
 30
0.0
 40
0.7500000000000107
100
AcDbArc
 50
298.1255057021
 51
151.8744942979
  0
ARC
  5
284
330
1F
100
AcDbEntity
  8
0
  6
Continuous
 62
     7
370
    25
100
AcDbCircle
 10
5.6153507624
 20
105.5955638784
 30
0.0
 40
0.7500000000000137
100
AcDbArc
 50
28.1255057021
 51
241.8744942979
  0
ARC
  5
285
330
1F
100
AcDbEntity
  8
0
  6
Continuous
 62
     7
370
    25
100
AcDbCircle
 10
5.6153507624
 20
92.302563906
 30
0.0
 40
0.7500000000000036
100
AcDbArc
 50
118.1255057021
 51
331.8744942979
  0
ARC
  5
286
330
1F
100
AcDbEntity
  8
0
  6
Continuous
 62
     7
370
    25
100
AcDbCircle
 10
18.9083507348
 20
92.302563906
 30
0.0
 40
0.7499999999999986
100
AcDbArc
 50
208.1255057021
 51
61.8744942979
  0
ARC
  5
287
330
1F
100
AcDbEntity
  8
0
  6
Continuous
 62
     7
370
    25
100
AcDbCircle
 10
-13.4346492376
 20
92.302563906
 30
0.0
 40
0.7500000000000019
100
AcDbArc
 50
118.1255057021
 51
331.8744942979
  0
ARC
  5
288
330
1F
100
AcDbEntity
  8
0
  6
Continuous
 62
     7
370
    25
100
AcDbCircle
 10
-0.1416492652
 20
92.302563906
 30
0.0
 40
0.7499999999999992
100
AcDbArc
 50
208.1255057021
 51
61.8744942979
  0
ARC
  5
289
330
1F
100
AcDbEntity
  8
0
  6
Continuous
 62
     7
370
    25
100
AcDbCircle
 10
-0.1416492652
 20
105.5955638784
 30
0.0
 40
0.7500000000000127
100
AcDbArc
 50
298.1255057021
 51
151.8744942979
  0
ARC
  5
28A
330
1F
100
AcDbEntity
  8
0
  6
Continuous
 62
     7
370
    25
100
AcDbCircle
 10
-13.4346492376
 20
105.5955638784
 30
0.0
 40
0.750000000000017
100
AcDbArc
 50
28.1255057021
 51
241.8744942979
  0
ARC
  5
28B
330
1F
100
AcDbEntity
  8
0
  6
Continuous
 62
     7
370
    25
100
AcDbCircle
 10
-32.4846492376
 20
95.302563906
 30
0.0
 40
0.7500000000000069
100
AcDbArc
 50
118.1255057021
 51
331.8744942979
  0
ARC
  5
28C
330
1F
100
AcDbEntity
  8
0
  6
Continuous
 62
     7
370
    25
100
AcDbCircle
 10
-19.1916492652
 20
95.302563906
 30
0.0
 40
0.7500000000000102
100
AcDbArc
 50
208.1255057021
 51
61.8744942979
  0
ARC
  5
28D
330
1F
100
AcDbEntity
  8
0
  6
Continuous
 62
     7
370
    25
100
AcDbCircle
 10
-19.1916492652
 20
108.5955638784
 30
0.0
 40
0.7500000000000069
100
AcDbArc
 50
298.1255057021
 51
151.8744942979
  0
ARC
  5
28E
330
1F
100
AcDbEntity
  8
0
  6
Continuous
 62
     7
370
    25
100
AcDbCircle
 10
-32.4846492376
 20
108.5955638784
 30
0.0
 40
0.7500000000000003
100
AcDbArc
 50
28.1255057021
 51
241.8744942979
  0
ARC
  5
28F
330
1F
100
AcDbEntity
  8
0
  6
Continuous
 62
     7
370
    25
100
AcDbCircle
 10
-95.391702642
 20
91.777563906
 30
0.0
 40
0.7500000000000228
100
AcDbArc
 50
208.1255057021
 51
61.8744942979
  0
ARC
  5
290
330
1F
100
AcDbEntity
  8
0
  6
Continuous
 62
     7
370
    25
100
AcDbCircle
 10
-95.391702642
 20
105.0705638784
 30
0.0
 40
0.7500000000000094
100
AcDbArc
 50
298.1255057021
 51
151.8744942979
  0
ARC
  5
291
330
1F
100
AcDbEntity
  8
0
  6
Continuous
 62
     7
370
    25
100
AcDbCircle
 10
-108.6847026144
 20
105.0705638784
 30
0.0
 40
0.7499999999999968
100
AcDbArc
 50
28.1255057021
 51
241.8744942979
  0
ARC
  5
292
330
1F
100
AcDbEntity
  8
0
  6
Continuous
 62
     7
370
    25
100
AcDbCircle
 10
-108.6847026144
 20
91.777563906
 30
0.0
 40
0.7500000000000102
100
AcDbArc
 50
118.1255057021
 51
331.8744942979
  0
ARC
  5
293
330
1F
100
AcDbEntity
  8
0
  6
Continuous
 62
     7
370
    25
100
AcDbCircle
 10
-76.341702642
 20
91.777563906
 30
0.0
 40
0.7499999999999977
100
AcDbArc
 50
208.1255057021
 51
61.8744942979
  0
ARC
  5
294
330
1F
100
AcDbEntity
  8
0
  6
Continuous
 62
     7
370
    25
100
AcDbCircle
 10
-76.341702642
 20
105.0705638784
 30
0.0
 40
0.7499999999999919
100
AcDbArc
 50
298.1255057021
 51
151.8744942979
  0
ARC
  5
295
330
1F
100
AcDbEntity
  8
0
  6
Continuous
 62
     7
370
    25
100
AcDbCircle
 10
-89.6347026144
 20
105.0705638784
 30
0.0
 40
0.7499999999999968
100
AcDbArc
 50
28.1255057021
 51
241.8744942979
  0
ARC
  5
296
330
1F
100
AcDbEntity
  8
0
  6
Continuous
 62
     7
370
    25
100
AcDbCircle
 10
-89.6347026144
 20
91.777563906
 30
0.0
 40
0.7499999999999968
100
AcDbArc
 50
118.1255057021
 51
331.8744942979
  0
ARC
  5
297
330
1F
100
AcDbEntity
  8
0
  6
Continuous
 62
     7
370
    25
100
AcDbCircle
 10
-70.5847026144
 20
96.540063906
 30
0.0
 40
0.7500000000000278
100
AcDbArc
 50
118.1255057021
 51
331.8744942979
  0
ARC
  5
298
330
1F
100
AcDbEntity
  8
0
  6
Continuous
 62
     7
370
    25
100
AcDbCircle
 10
-57.291702642
 20
96.540063906
 30
0.0
 40
0.750000000000004
100
AcDbArc
 50
208.1255057021
 51
61.8744942979
  0
ARC
  5
299
330
1F
100
AcDbEntity
  8
0
  6
Continuous
 62
     7
370
    25
100
AcDbCircle
 10
-57.291702642
 20
109.8330638784
 30
0.0
 40
0.7500000000000031
100
AcDbArc
 50
298.1255057021
 51
151.8744942979
  0
ARC
  5
29A
330
1F
100
AcDbEntity
  8
0
  6
Continuous
 62
     7
370
    25
100
AcDbCircle
 10
-70.5847026144
 20
109.8330638784
 30
0.0
 40
0.7499999999999968
100
AcDbArc
 50
28.1255057021
 51
241.8744942979
  0
ARC
  5
29B
330
1F
100
AcDbEntity
  8
0
  6
Continuous
 62
     7
370
    25
100
AcDbCircle
 10
-38.2417560188
 20
114.5955638784
 30
0.0
 40
0.7500000000000161
100
AcDbArc
 50
298.1255057021
 51
151.8744942979
  0
ARC
  5
29C
330
1F
100
AcDbEntity
  8
0
  6
Continuous
 62
     7
370
    25
100
AcDbCircle
 10
-51.5346492376
 20
114.5955638784
 30
0.0
 40
0.7500000000000031
100
AcDbArc
 50
28.1255057021
 51
241.8744942979
  0
ARC
  5
29D
330
1F
100
AcDbEntity
  8
0
  6
Continuous
 62
     7
370
    25
100
AcDbCircle
 10
-51.7114259329
 20
101.1258939643
 30
0.0
 40
0.7499999999999966
100
AcDbArc
 50
103.6330222254
 51
346.3669777746
  0
ARC
  5
29E
330
1F
100
AcDbEntity
  8
0
  6
Continuous
 62
     7
370
    25
100
AcDbCircle
 10
-38.2417560188
 20
101.3026706596
 30
0.0
 40
0.7500000000000102
100
AcDbArc
 50
208.1255057021
 51
61.8744942979
  0
ARC
  5
29F
330
1F
100
AcDbEntity
  8
0
  6
Continuous
 62
     7
370
    25
100
AcDbCircle
 10
-6.9520567243
 20
0.9508729719
 30
0.0
 40
2.499999999999999
100
AcDbArc
 50
340.0
 51
80.0
  0
ARC
  5
2A0
330
1F
100
AcDbEntity
  8
0
  6
Continuous
 62
     7
370
    25
100
AcDbCircle
 10
-18.5908735999
 20
-0.550882731
 30
0.0
 40
5.999999999999482
100
AcDbArc
 50
80.0
 51
90.0
  0
ARC
  5
2A1
330
1F
100
AcDbEntity
  8
0
  6
Continuous
 62
     7
370
    25
100
AcDbCircle
 10
-112.7762026282
 20
11.449117269
 30
0.0
 40
6.000000000000014
100
AcDbArc
 50
180.0
 51
270.0
  0
ARC
  5
2A2
330
1F
100
AcDbEntity
  8
0
  6
Continuous
 62
     7
370
    25
100
AcDbCircle
 10
-112.7762026282
 20
118.649117269
 30
0.0
 40
6.0
100
AcDbArc
 50
90.0
 51
180.0
  0
ARC
  5
2A3
330
1F
100
AcDbEntity
  8
0
  6
Continuous
 62
     7
370
    25
100
AcDbCircle
 10
23.0237929643
 20
118.649117269
 30
0.0
 40
5.999999999999989
100
AcDbArc
 50
0.0
 51
90.0
  0
ARC
  5
2A4
330
1F
100
AcDbEntity
  8
0
  6
Continuous
 62
     7
370
    25
100
AcDbCircle
 10
35.0237929643
 20
38.4201459009
 30
0.0
 40
6.00000000000001
100
AcDbArc
 50
180.0
 51
207.7581863852
  0
ARC
  5
2A5
330
1F
100
AcDbEntity
  8
0
  6
Continuous
 62
     7
370
    25
100
AcDbCircle
 10
38.5117949499
 20
31.7928427185
 30
0.0
 40
5.99999999999993
100
AcDbArc
 50
207.7581863852
 51
240.0
  0
ARC
  5
2A6
330
1F
100
AcDbEntity
  8
0
  6
Continuous
 62
     7
370
    25
100
AcDbCircle
 10
54.9562757915
 20
8.4422108174
 30
0.0
 40
6.000000000000004
100
AcDbArc
 50
330.0
 51
60.0
  0
ARC
  5
2A7
330
1F
100
AcDbEntity
  8
0
  6
Continuous
 62
     7
370
    25
100
AcDbCircle
 10
39.5501377615
 20
-18.2420029991
 30
0.0
 40
6.000000000000015
100
AcDbArc
 50
240.0
 51
330.0
  0
ARC
  5
2A8
330
1F
100
AcDbEntity
  8
0
  6
Continuous
 62
     7
370
    25
100
AcDbCircle
 10
17.8420070146
 20
-19.5652143293
 30
0.0
 40
5.999999999999294
100
AcDbArc
 50
60.0
 51
70.0
  0
ARC
  5
2A9
330
1F
100
AcDbEntity
  8
0
  6
Continuous
 62
     7
370
    25
100
AcDbCircle
 10
-3.0398112656
 20
-2.9193429719
 30
0.0
 40
2.5
100
AcDbArc
 50
160.0
 51
250.0
  0
ARC
  5
2AA
330
1F
100
AcDbEntity
  8
0
  6
Continuous
 62
     7
370
    25
100
AcDbCircle
 10
-51.7114259329
 20
63.0258939643
 30
0.0
 40
0.7499999999999983
100
AcDbArc
 50
103.6330222254
 51
346.3669777746
  0
ARC
  5
2AB
330
1F
100
AcDbEntity
  8
0
  6
Continuous
 62
     7
370
    25
100
AcDbCircle
 10
-38.2417560188
 20
63.2026706596
 30
0.0
 40
0.7500000000000001
100
AcDbArc
 50
208.1255057021
 51
61.8744942979
  0
ARC
  5
2AC
330
1F
100
AcDbEntity
  8
0
  6
Continuous
 62
     7
370
    25
100
AcDbCircle
 10
-38.2417560188
 20
76.4955638784
 30
0.0
 40
0.7500000000000031
100
AcDbArc
 50
298.1255057021
 51
151.8744942979
  0
ARC
  5
2AD
330
1F
100
AcDbEntity
  8
0
  6
Continuous
 62
     7
370
    25
100
AcDbCircle
 10
-51.5346492376
 20
76.4955638784
 30
0.0
 40
0.7500000000000157
100
AcDbArc
 50
28.1255057021
 51
241.8744942979
  0
ARC
  5
2AE
330
1F
100
AcDbEntity
  8
0
  6
Continuous
 62
     7
370
    25
100
AcDbCircle
 10
-51.7114259329
 20
43.9758939643
 30
0.0
 40
0.7500000000000002
100
AcDbArc
 50
103.6330222254
 51
346.3669777746
  0
ARC
  5
2AF
330
1F
100
AcDbEntity
  8
0
  6
Continuous
 62
     7
370
    25
100
AcDbCircle
 10
-38.2417560188
 20
44.1526706596
 30
0.0
 40
0.750000000000004
100
AcDbArc
 50
208.1255057021
 51
61.8744942979
  0
ARC
  5
2B0
330
1F
100
AcDbEntity
  8
0
  6
Continuous
 62
     7
370
    25
100
AcDbCircle
 10
-38.2417560188
 20
57.4455638784
 30
0.0
 40
0.750000000000004
100
AcDbArc
 50
298.1255057021
 51
151.8744942979
  0
ARC
  5
2B1
330
1F
100
AcDbEntity
  8
0
  6
Continuous
 62
     7
370
    25
100
AcDbCircle
 10
-51.5346492376
 20
57.4455638784
 30
0.0
 40
0.7500000000000036
100
AcDbArc
 50
28.1255057021
 51
241.8744942979
  0
ARC
  5
2B2
330
1F
100
AcDbEntity
  8
0
  6
Continuous
 62
     7
370
    25
100
AcDbCircle
 10
-51.7114259329
 20
24.9258939643
 30
0.0
 40
0.749999999999995
100
AcDbArc
 50
103.6330222254
 51
346.3669777746
  0
ARC
  5
2B3
330
1F
100
AcDbEntity
  8
0
  6
Continuous
 62
     7
370
    25
100
AcDbCircle
 10
-38.2417560188
 20
25.1026706596
 30
0.0
 40
0.750000000000001
100
AcDbArc
 50
208.1255057021
 51
61.8744942979
  0
ARC
  5
2B4
330
1F
100
AcDbEntity
  8
0
  6
Continuous
 62
     7
370
    25
100
AcDbCircle
 10
-38.2417560188
 20
38.3955638784
 30
0.0
 40
0.750000000000004
100
AcDbArc
 50
298.1255057021
 51
151.8744942979
  0
ARC
  5
2B5
330
1F
100
AcDbEntity
  8
0
  6
Continuous
 62
     7
370
    25
100
AcDbCircle
 10
-51.5346492376
 20
38.3955638784
 30
0.0
 40
0.7500000000000031
100
AcDbArc
 50
28.1255057021
 51
241.8744942979
  0
ARC
  5
2B6
330
1F
100
AcDbEntity
  8
0
  6
Continuous
 62
     7
370
    25
100
AcDbCircle
 10
5.6153507624
 20
35.152563906
 30
0.0
 40
0.7500000000000033
100
AcDbArc
 50
118.1255057021
 51
331.8744942979
  0
ARC
  5
2B7
330
1F
100
AcDbEntity
  8
0
  6
Continuous
 62
     7
370
    25
100
AcDbCircle
 10
18.9083507348
 20
35.152563906
 30
0.0
 40
0.7500000000000037
100
AcDbArc
 50
208.1255057021
 51
61.8744942979
  0
ARC
  5
2B8
330
1F
100
AcDbEntity
  8
0
  6
Continuous
 62
     7
370
    25
100
AcDbCircle
 10
18.9083507348
 20
48.4455638784
 30
0.0
 40
0.7500000000000006
100
AcDbArc
 50
298.1255057021
 51
151.8744942979
  0
ARC
  5
2B9
330
1F
100
AcDbEntity
  8
0
  6
Continuous
 62
     7
370
    25
100
AcDbCircle
 10
5.6153507624
 20
48.4455638784
 30
0.0
 40
0.7500000000000123
100
AcDbArc
 50
28.1255057021
 51
241.8744942979
  0
ARC
  5
2BA
330
1F
100
AcDbEntity
  8
0
  6
Continuous
 62
     7
370
    25
100
AcDbCircle
 10
18.9083507348
 20
67.4955638784
 30
0.0
 40
0.7500000000000071
100
AcDbArc
 50
298.1255057021
 51
151.8744942979
  0
ARC
  5
2BB
330
1F
100
AcDbEntity
  8
0
  6
Continuous
 62
     7
370
    25
100
AcDbCircle
 10
5.6153507624
 20
67.4955638784
 30
0.0
 40
0.7500000000000074
100
AcDbArc
 50
28.1255057021
 51
241.8744942979
  0
ARC
  5
2BC
330
1F
100
AcDbEntity
  8
0
  6
Continuous
 62
     7
370
    25
100
AcDbCircle
 10
5.6153507624
 20
54.202563906
 30
0.0
 40
0.7500000000000057
100
AcDbArc
 50
118.1255057021
 51
331.8744942979
  0
ARC
  5
2BD
330
1F
100
AcDbEntity
  8
0
  6
Continuous
 62
     7
370
    25
100
AcDbCircle
 10
18.9083507348
 20
54.202563906
 30
0.0
 40
0.7500000000000064
100
AcDbArc
 50
208.1255057021
 51
61.8744942979
  0
ARC
  5
2BE
330
1F
100
AcDbEntity
  8
0
  6
Continuous
 62
     7
370
    25
100
AcDbCircle
 10
18.9083507348
 20
73.252563906
 30
0.0
 40
0.7500000000000094
100
AcDbArc
 50
208.1255057021
 51
61.8744942979
  0
ARC
  5
2BF
330
1F
100
AcDbEntity
  8
0
  6
Continuous
 62
     7
370
    25
100
AcDbCircle
 10
18.9083507348
 20
86.5455638784
 30
0.0
 40
0.7500000000000071
100
AcDbArc
 50
298.1255057021
 51
151.8744942979
  0
ARC
  5
2C0
330
1F
100
AcDbEntity
  8
0
  6
Continuous
 62
     7
370
    25
100
AcDbCircle
 10
5.6153507624
 20
86.5455638784
 30
0.0
 40
0.7500000000000087
100
AcDbArc
 50
28.1255057021
 51
241.8744942979
  0
ARC
  5
2C1
330
1F
100
AcDbEntity
  8
0
  6
Continuous
 62
     7
370
    25
100
AcDbCircle
 10
5.6153507624
 20
73.252563906
 30
0.0
 40
0.7500000000000019
100
AcDbArc
 50
118.1255057021
 51
331.8744942979
  0
ARC
  5
2C2
330
1F
100
AcDbEntity
  8
0
  6
Continuous
 62
     7
370
    25
100
AcDbCircle
 10
-11.1117232025
 20
14.4815884098
 30
0.0
 40
0.7500000000000003
100
AcDbArc
 50
108.1255057021
 51
321.8744942979
  0
ARC
  5
2C3
330
1F
100
AcDbEntity
  8
0
  6
Continuous
 62
     7
370
    25
100
AcDbCircle
 10
1.9793262311
 20
12.1732831888
 30
0.0
 40
0.7500000000000032
100
AcDbArc
 50
198.1255057021
 51
51.8744942979
  0
ARC
  5
2C4
330
1F
100
AcDbEntity
  8
0
  6
Continuous
 62
     7
370
    25
100
AcDbCircle
 10
4.287631452
 20
25.2643326224
 30
0.0
 40
0.7500000000000034
100
AcDbArc
 50
288.1255057021
 51
141.8744942979
  0
ARC
  5
2C5
330
1F
100
AcDbEntity
  8
0
  6
Continuous
 62
     7
370
    25
100
AcDbCircle
 10
-8.8034179816
 20
27.5726378434
 30
0.0
 40
0.750000000000003
100
AcDbArc
 50
18.1255057021
 51
231.8744942979
  0
ARC
  5
2C6
330
1F
100
AcDbEntity
  8
0
  6
Continuous
 62
     7
370
    25
100
AcDbCircle
 10
8.3183247578
 20
5.9654151281
 30
0.0
 40
0.7499999999999992
100
AcDbArc
 50
98.1255057021
 51
311.8744942979
  0
ARC
  5
2C7
330
1F
100
AcDbEntity
  8
0
  6
Continuous
 62
     7
370
    25
100
AcDbCircle
 10
20.80965874
 20
1.4189413723
 30
0.0
 40
0.7500000000000077
100
AcDbArc
 50
188.1255057021
 51
41.8744942979
  0
ARC
  5
2C8
330
1F
100
AcDbEntity
  8
0
  6
Continuous
 62
     7
370
    25
100
AcDbCircle
 10
25.3561324958
 20
13.9102753545
 30
0.0
 40
0.7500000000000041
100
AcDbArc
 50
278.1255057021
 51
131.8744942979
  0
ARC
  5
2C9
330
1F
100
AcDbEntity
  8
0
  6
Continuous
 62
     7
370
    25
100
AcDbCircle
 10
12.8647985136
 20
18.4567491103
 30
0.0
 40
0.7500000000000004
100
AcDbArc
 50
8.1255057021
 51
221.8744942979
  0
ARC
  5
2CA
330
1F
100
AcDbEntity
  8
0
  6
Continuous
 62
     7
370
    25
100
AcDbCircle
 10
28.961208948
 20
-2.0936917493
 30
0.0
 40
0.7500000000007195
100
AcDbArc
 50
88.125505702
 51
301.874494298
  0
ARC
  5
2CB
330
1F
100
AcDbEntity
  8
0
  6
Continuous
 62
     7
370
    25
100
AcDbCircle
 10
40.4732846166
 20
-8.7401917355
 30
0.0
 40
0.7500000000000869
100
AcDbArc
 50
178.1255057021
 51
31.8744942979
  0
ARC
  5
2CC
330
1F
100
AcDbEntity
  8
0
  6
Continuous
 62
     7
370
    25
100
AcDbCircle
 10
47.1197846028
 20
2.7718839331
 30
0.0
 40
0.7500000000006778
100
AcDbArc
 50
268.125505702
 51
121.874494298
  0
ARC
  5
2CD
330
1F
100
AcDbEntity
  8
0
  6
Continuous
 62
     7
370
    25
100
AcDbCircle
 10
35.6077089342
 20
9.4183839193
 30
0.0
 40
0.7500000000000507
100
AcDbArc
 50
358.125505702
 51
211.8744942979
  0
ARC
  5
2CE
330
1F
100
AcDbEntity
  8
0
  6
Continuous
 62
     7
370
    25
100
AcDbCircle
 10
-0.1416492652
 20
67.4955638784
 30
0.0
 40
0.7500000000000113
100
AcDbArc
 50
298.1255057021
 51
151.8744942979
  0
ARC
  5
2CF
330
1F
100
AcDbEntity
  8
0
  6
Continuous
 62
     7
370
    25
100
AcDbCircle
 10
-13.4346492376
 20
67.4955638784
 30
0.0
 40
0.7500000000000102
100
AcDbArc
 50
28.1255057021
 51
241.8744942979
  0
ARC
  5
2D0
330
1F
100
AcDbEntity
  8
0
  6
Continuous
 62
     7
370
    25
100
AcDbCircle
 10
-13.4346492376
 20
54.202563906
 30
0.0
 40
0.7500000000000049
100
AcDbArc
 50
118.1255057021
 51
331.8744942979
  0
ARC
  5
2D1
330
1F
100
AcDbEntity
  8
0
  6
Continuous
 62
     7
370
    25
100
AcDbCircle
 10
-0.1416492652
 20
54.202563906
 30
0.0
 40
0.7500000000000032
100
AcDbArc
 50
208.1255057021
 51
61.8744942979
  0
ARC
  5
2D2
330
1F
100
AcDbEntity
  8
0
  6
Continuous
 62
     7
370
    25
100
AcDbCircle
 10
-0.1416492652
 20
48.4455638784
 30
0.0
 40
0.750000000000003
100
AcDbArc
 50
298.1255057021
 51
151.8744942979
  0
ARC
  5
2D3
330
1F
100
AcDbEntity
  8
0
  6
Continuous
 62
     7
370
    25
100
AcDbCircle
 10
-13.4346492376
 20
48.4455638784
 30
0.0
 40
0.7500000000000048
100
AcDbArc
 50
28.1255057021
 51
241.8744942979
  0
ARC
  5
2D4
330
1F
100
AcDbEntity
  8
0
  6
Continuous
 62
     7
370
    25
100
AcDbCircle
 10
-13.4346492376
 20
35.152563906
 30
0.0
 40
0.7500000000000049
100
AcDbArc
 50
118.1255057021
 51
331.8744942979
  0
ARC
  5
2D5
330
1F
100
AcDbEntity
  8
0
  6
Continuous
 62
     7
370
    25
100
AcDbCircle
 10
-0.1416492652
 20
35.152563906
 30
0.0
 40
0.7500000000000032
100
AcDbArc
 50
208.1255057021
 51
61.8744942979
  0
MTEXT
  5
2D7
330
1F
100
AcDbEntity
  8
0
  6
Continuous
 62
     7
100
AcDbMText
 10
-118.7762026282
 20
-25.2615693907
 30
0.0
 40
4.83362
 41
0.0
 71
     1
 72
     1
  1
SOLIDWORKS Educational Product.
  7
SLDTEXTSTYLE0
 73
     1
 44
1.0
  0
MTEXT
  5
2D8
330
1F
100
AcDbEntity
  8
0
  6
Continuous
 62
     7
100
AcDbMText
 10
-118.7762026282
 20
-32.5119993907
 30
0.0
 40
4.83362
 41
0.0
 71
     1
 72
     1
  1
For Instructional Use Only.
  7
SLDTEXTSTYLE0
 73
     1
 44
1.0
  0
ENDSEC
  0
SECTION
  2
OBJECTS
  0
DICTIONARY
  5
C
330
0
100
AcDbDictionary
281
     1
  3
ACAD_GROUP
350
D
  3
ACAD_LAYOUT
350
1A
  3
ACAD_MLINESTYLE
350
17
  3
ACAD_PLOTSETTINGS
350
19
  3
ACAD_PLOTSTYLENAME
350
E
  3
ACAD_SCALELIST
350
47
  3
DWGPROPS
350
2D9
  0
DICTIONARY
  5
D
102
{ACAD_REACTORS
330
C
102
}
330
C
100
AcDbDictionary
281
     1
  0
DICTIONARY
  5
1A
102
{ACAD_REACTORS
330
C
102
}
330
C
100
AcDbDictionary
281
     1
  3
Layout1
350
1E
  3
Layout2
350
26
  3
Model
350
22
  0
DICTIONARY
  5
17
102
{ACAD_REACTORS
330
C
102
}
330
C
100
AcDbDictionary
281
     1
  3
Standard
350
18
  0
DICTIONARY
  5
19
102
{ACAD_REACTORS
330
C
102
}
330
C
100
AcDbDictionary
281
     1
  0
ACDBDICTIONARYWDFLT
  5
E
102
{ACAD_REACTORS
330
C
102
}
330
C
100
AcDbDictionary
281
     1
  3
Normal
350
F
100
AcDbDictionaryWithDefault
340
F
  0
DICTIONARY
  5
47
102
{ACAD_REACTORS
330
C
102
}
330
C
100
AcDbDictionary
281
     1
  3
A0
350
48
  3
A1
350
49
  3
A2
350
4A
  3
A3
350
4B
  3
A4
350
4C
  3
A5
350
4D
  3
A6
350
4E
  3
A7
350
4F
  3
A8
350
50
  3
A9
350
51
  3
B0
350
52
  3
B1
350
53
  3
B2
350
54
  3
B3
350
55
  3
B4
350
56
  3
B5
350
57
  3
B6
350
58
  0
XRECORD
  5
2D9
102
{ACAD_REACTORS
330
C
102
}
330
C
100
AcDbXrecord
280
     1
  1
DWGPROPS COOKIE
  2

  3

  4

  6

  7

  8
matja
  9

300
=
301
=
302
=
303
=
304
=
305
=
306
=
307
=
308
=
309
=
 40
0.0
 41
2460900.330646771
 42
2460900.330733333
  1

 90
        0
  0
LAYOUT
  5
1E
102
{ACAD_REACTORS
330
1A
102
}
330
1A
100
AcDbPlotSettings
  1

  2
none_device
  4

  6

 40
0.0
 41
0.0
 42
0.0
 43
0.0
 44
0.0
 45
0.0
 46
0.0
 47
0.0
 48
0.0
 49
0.0
140
0.0
141
0.0
142
1.0
143
1.0
 70
   688
 72
     1
 73
     0
 74
     5
  7

 75
    16
147
1.0
148
0.0
149
0.0
100
AcDbLayout
  1
Layout1
 70
     1
 71
     1
 10
0.0
 20
0.0
 11
420.0
 21
297.0
 12
0.0
 22
0.0
 32
0.0
 14
1.0000000000E+20
 24
1.0000000000E+20
 34
1.0000000000E+20
 15
-1.0000000000E+20
 25
-1.0000000000E+20
 35
-1.0000000000E+20
146
0.0
 13
0.0
 23
0.0
 33
0.0
 16
1.0
 26
0.0
 36
0.0
 17
0.0
 27
1.0
 37
0.0
 76
     0
330
1B
  0
LAYOUT
  5
26
102
{ACAD_REACTORS
330
1A
102
}
330
1A
100
AcDbPlotSettings
  1

  2
none_device
  4

  6

 40
0.0
 41
0.0
 42
0.0
 43
0.0
 44
0.0
 45
0.0
 46
0.0
 47
0.0
 48
0.0
 49
0.0
140
0.0
141
0.0
142
1.0
143
1.0
 70
   688
 72
     1
 73
     0
 74
     5
  7

 75
    16
147
1.0
148
0.0
149
0.0
100
AcDbLayout
  1
Layout2
 70
     1
 71
     2
 10
0.0
 20
0.0
 11
0.0
 21
0.0
 12
0.0
 22
0.0
 32
0.0
 14
0.0
 24
0.0
 34
0.0
 15
0.0
 25
0.0
 35
0.0
146
0.0
 13
0.0
 23
0.0
 33
0.0
 16
1.0
 26
0.0
 36
0.0
 17
0.0
 27
1.0
 37
0.0
 76
     0
330
23
  0
LAYOUT
  5
22
102
{ACAD_REACTORS
330
1A
102
}
330
1A
100
AcDbPlotSettings
  1

  2
none_device
  4
ANSI_A_(11.00_x_8.50_Inches)
  6

 40
6.35
 41
19.05
 42
6.35000508
 43
19.05000254
 44
279.4
 45
215.9
 46
174.8517638506
 47
16.8301634956
 48
0.0
 49
0.0
140
0.0
141
0.0
142
0.0565178097
143
1.0
 70
  1696
 72
     0
 73
     0
 74
     0
  7

 75
     0
147
0.0179189148
148
-1300.4909072572
149
0.0
100
AcDbLayout
  1
Model
 70
     1
 71
     0
 10
0.0
 20
0.0
 11
420.0
 21
297.0
 12
0.0
 22
0.0
 32
0.0
 14
-118.7762026282
 24
-24.2420029991
 34
0.0
 15
60.9562757915
 25
124.649117269
 35
0.0
146
0.0
 13
0.0
 23
0.0
 33
0.0
 16
1.0
 26
0.0
 36
0.0
 17
0.0
 27
1.0
 37
0.0
 76
     0
330
1F
331
29
  0
MLINESTYLE
  5
18
102
{ACAD_REACTORS
330
17
102
}
330
17
100
AcDbMlineStyle
  2
Standard
 70
     0
  3

 62
   256
 51
90.0
 52
90.0
 71
     2
 49
0.5
 62
   256
  6
BYLAYER
 49
-0.5
 62
   256
  6
BYLAYER
  0
ACDBPLACEHOLDER
  5
F
102
{ACAD_REACTORS
330
E
102
}
330
E
  0
SCALE
  5
48
102
{ACAD_REACTORS
330
47
102
}
330
47
100
AcDbScale
 70
     0
300
1:1
140
1.0
141
1.0
290
     1
  0
SCALE
  5
49
102
{ACAD_REACTORS
330
47
102
}
330
47
100
AcDbScale
 70
     0
300
1:2
140
1.0
141
2.0
290
     0
  0
SCALE
  5
4A
102
{ACAD_REACTORS
330
47
102
}
330
47
100
AcDbScale
 70
     0
300
1:4
140
1.0
141
4.0
290
     0
  0
SCALE
  5
4B
102
{ACAD_REACTORS
330
47
102
}
330
47
100
AcDbScale
 70
     0
300
1:5
140
1.0
141
5.0
290
     0
  0
SCALE
  5
4C
102
{ACAD_REACTORS
330
47
102
}
330
47
100
AcDbScale
 70
     0
300
1:8
140
1.0
141
8.0
290
     0
  0
SCALE
  5
4D
102
{ACAD_REACTORS
330
47
102
}
330
47
100
AcDbScale
 70
     0
300
1:10
140
1.0
141
10.0
290
     0
  0
SCALE
  5
4E
102
{ACAD_REACTORS
330
47
102
}
330
47
100
AcDbScale
 70
     0
300
1:16
140
1.0
141
16.0
290
     0
  0
SCALE
  5
4F
102
{ACAD_REACTORS
330
47
102
}
330
47
100
AcDbScale
 70
     0
300
1:20
140
1.0
141
20.0
290
     0
  0
SCALE
  5
50
102
{ACAD_REACTORS
330
47
102
}
330
47
100
AcDbScale
 70
     0
300
1:30
140
1.0
141
30.0
290
     0
  0
SCALE
  5
51
102
{ACAD_REACTORS
330
47
102
}
330
47
100
AcDbScale
 70
     0
300
1:40
140
1.0
141
40.0
290
     0
  0
SCALE
  5
52
102
{ACAD_REACTORS
330
47
102
}
330
47
100
AcDbScale
 70
     0
300
1:50
140
1.0
141
50.0
290
     0
  0
SCALE
  5
53
102
{ACAD_REACTORS
330
47
102
}
330
47
100
AcDbScale
 70
     0
300
1:100
140
1.0
141
100.0
290
     0
  0
SCALE
  5
54
102
{ACAD_REACTORS
330
47
102
}
330
47
100
AcDbScale
 70
     0
300
2:1
140
2.0
141
1.0
290
     0
  0
SCALE
  5
55
102
{ACAD_REACTORS
330
47
102
}
330
47
100
AcDbScale
 70
     0
300
4:1
140
4.0
141
1.0
290
     0
  0
SCALE
  5
56
102
{ACAD_REACTORS
330
47
102
}
330
47
100
AcDbScale
 70
     0
300
8:1
140
8.0
141
1.0
290
     0
  0
SCALE
  5
57
102
{ACAD_REACTORS
330
47
102
}
330
47
100
AcDbScale
 70
     0
300
10:1
140
10.0
141
1.0
290
     0
  0
SCALE
  5
58
102
{ACAD_REACTORS
330
47
102
}
330
47
100
AcDbScale
 70
     0
300
100:1
140
100.0
141
1.0
290
     0
  0
ENDSEC
  0
EOF
